<svg width="25" height="25" viewBox="0 0 25 25" fill="none" xmlns="http://www.w3.org/2000/svg">
<path d="M16.1185 2.27386L15.9175 1.96902L15.7166 2.27386C15.6386 2.39229 15.5359 2.5371 15.4191 2.70191C15.3952 2.73567 15.3707 2.77027 15.3457 2.80566C15.2001 3.01144 15.0401 3.24011 14.8918 3.47021C14.7439 3.69959 14.6042 3.93569 14.5007 4.15668C14.4001 4.37137 14.3205 4.59898 14.3205 4.80354C14.3205 5.20598 14.5601 5.53077 14.8586 5.74423C15.1579 5.95831 15.5458 6.08448 15.9175 6.08448C16.2666 6.08448 16.6554 6.01162 16.9653 5.81532C17.2875 5.6112 17.5145 5.27759 17.5145 4.80354C17.5145 4.60135 17.4345 4.37482 17.3343 4.16133C17.2309 3.94112 17.0913 3.70483 16.9435 3.47483C16.7952 3.24409 16.6353 3.01441 16.4897 2.80768C16.4628 2.76953 16.4366 2.73228 16.411 2.69602C16.2963 2.53357 16.1955 2.39071 16.1185 2.27386Z" fill="#FFD147" stroke="#700099" stroke-width="0.481254"/>
<path d="M16.9047 10.0835H14.931" stroke="#700099" stroke-width="0.481254" stroke-linecap="round"/>
<path d="M16.9271 9.05212C18.1778 9.72313 18.0269 10.3919 17.0504 10.8382M14.685 11.999C14.1657 12.3347 13.6954 12.7426 13.3751 13.2581C11.8428 15.7243 12.9225 18.2676 10.2686 16.8438C7.61465 15.4199 5.2221 12.1722 6.75435 9.706C7.96469 7.75791 12.0313 7.66252 14.9946 8.41021" stroke="#700099" stroke-width="0.481254"/>
<path d="M8.78899 13.9853C9.1875 13.9853 9.52588 13.683 9.52588 13.292C9.52588 12.9009 9.1875 12.5987 8.78899 12.5987C8.39049 12.5987 8.05211 12.9009 8.05211 13.292C8.05211 13.683 8.39049 13.9853 8.78899 13.9853Z" fill="#FFD147" stroke="#FFD147" stroke-width="0.240627"/>
<path d="M10.5154 15.5894C10.9139 15.5894 11.2523 15.2872 11.2523 14.8961C11.2523 14.5051 10.9139 14.2028 10.5154 14.2028C10.1169 14.2028 9.77855 14.5051 9.77855 14.8961C9.77855 15.2872 10.1169 15.5894 10.5154 15.5894Z" fill="#FFD147" stroke="#FFD147" stroke-width="0.240627"/>
<path d="M8.04919 11.9227C8.44769 11.9227 8.78607 11.6205 8.78607 11.2295C8.78607 10.8384 8.44769 10.5362 8.04919 10.5362C7.65068 10.5362 7.3123 10.8384 7.3123 11.2295C7.3123 11.6205 7.65068 11.9227 8.04919 11.9227Z" fill="#FFD147" stroke="#FFD147" stroke-width="0.240627"/>
<path d="M9.52898 10.3184C9.92749 10.3184 10.2659 10.0162 10.2659 9.62517C10.2659 9.23413 9.92749 8.9319 9.52898 8.9319C9.13048 8.9319 8.7921 9.23413 8.7921 9.62517C8.7921 10.0162 9.13048 10.3184 9.52898 10.3184Z" fill="#FFD147" stroke="#FFD147" stroke-width="0.240627"/>
<path d="M11.995 10.0894C12.3936 10.0894 12.7319 9.78712 12.7319 9.39608C12.7319 9.00504 12.3936 8.70281 11.995 8.70281C11.5965 8.70281 11.2582 9.00504 11.2582 9.39608C11.2582 9.78712 11.5965 10.0894 11.995 10.0894Z" fill="#FFD147" stroke="#FFD147" stroke-width="0.240627"/>
<path d="M16.5372 21.2884C16.4606 21.405 16.2662 21.6568 15.9175 21.6568C15.5688 21.6568 15.3744 21.405 15.2978 21.2884C15.2005 21.1404 15.1241 20.9519 15.0605 20.752C15.0218 20.6302 15.1228 20.5109 15.2595 20.5109H15.3085C15.4214 20.5109 15.5193 20.5818 15.5531 20.6819C15.6658 21.0152 15.7888 21.1984 15.9175 21.1984C16.41 21.1984 16.8182 18.5151 16.892 15.0078C16.8947 14.8826 17.0044 14.7816 17.1391 14.7816C17.2768 14.7816 17.3879 14.8865 17.3852 15.0145C17.352 16.595 17.2514 18.0152 17.1044 19.1073C17.014 19.7797 16.9038 20.3454 16.7745 20.752C16.7109 20.9519 16.6345 21.1404 16.5372 21.2884Z" fill="#700099"/>
<path d="M14.7825 17.3025C14.925 17.3025 15.0378 17.1905 15.0292 17.0583C14.9663 16.0929 14.931 15.0096 14.931 13.8649C14.931 9.81475 15.3727 6.53143 15.9175 6.53143C16.3436 6.53143 16.7066 8.53999 16.8446 11.353C16.8506 11.4759 16.9593 11.5732 17.0916 11.5732C17.2317 11.5732 17.3438 11.4647 17.3374 11.3346C17.2871 10.3086 17.2071 9.38551 17.1044 8.62251C17.014 7.95012 16.9038 7.3844 16.7745 6.97783C16.7109 6.77798 16.6345 6.58949 16.5372 6.44149C16.4606 6.32487 16.2662 6.07309 15.9175 6.07309C15.5688 6.07309 15.3744 6.32487 15.2978 6.44149C15.2005 6.58949 15.1241 6.77798 15.0605 6.97783C14.9312 7.3844 14.821 7.95012 14.7305 8.62251C14.5488 9.97373 14.4378 11.827 14.4378 13.8649C14.4378 15.0177 14.4733 16.1113 14.5371 17.0885C14.5449 17.2089 14.6526 17.3025 14.7825 17.3025Z" fill="#700099"/>
<ellipse cx="17.2974" cy="13.1776" rx="0.493662" ry="0.458745" fill="#FFD147"/>
<ellipse cx="14.8315" cy="18.9071" rx="0.493662" ry="0.458745" fill="#FFD147"/>
</svg>
