<svg width="25" height="25" viewBox="0 0 25 25" fill="none" xmlns="http://www.w3.org/2000/svg">
<mask id="path-1-outside-1_903_138" maskUnits="userSpaceOnUse" x="3.33862" y="5.13776" width="17" height="7" fill="black">
<rect fill="white" x="3.33862" y="5.13776" width="17" height="7"/>
<path d="M15.8079 8.10962C14.185 8.04004 14.1646 9.43938 14.2355 10.0377C15.7361 12.8997 18.7084 10.4921 19.739 8.69686C19.1048 8.53011 17.4309 8.1792 15.8079 8.10962Z"/>
<path d="M8.29555 6.13786C9.92012 6.14406 9.86733 7.54264 9.76521 8.13697C8.11688 10.9254 5.27407 8.38212 4.33862 6.54104C4.98069 6.40406 6.67097 6.13166 8.29555 6.13786Z"/>
</mask>
<path d="M15.8079 8.10962C14.185 8.04004 14.1646 9.43938 14.2355 10.0377C15.7361 12.8997 18.7084 10.4921 19.739 8.69686C19.1048 8.53011 17.4309 8.1792 15.8079 8.10962Z" fill="#FFD147"/>
<path d="M8.29555 6.13786C9.92012 6.14406 9.86733 7.54264 9.76521 8.13697C8.11688 10.9254 5.27407 8.38212 4.33862 6.54104C4.98069 6.40406 6.67097 6.13166 8.29555 6.13786Z" fill="#FFD147"/>
<path d="M14.2355 10.0377L13.7576 10.0944C13.7645 10.1527 13.7821 10.2092 13.8093 10.2612L14.2355 10.0377ZM15.8079 8.10962L15.8286 7.62881L15.8286 7.62881L15.8079 8.10962ZM19.739 8.69686L20.1563 8.93647C20.2309 8.80655 20.2407 8.64931 20.1829 8.51112C20.1251 8.37292 20.0062 8.26953 19.8614 8.23143L19.739 8.69686ZM9.76521 8.13697L10.1795 8.38186C10.2093 8.33149 10.2296 8.27612 10.2395 8.21846L9.76521 8.13697ZM8.29555 6.13786L8.29371 6.61911L8.29371 6.61911L8.29555 6.13786ZM4.33862 6.54104L4.23821 6.07038C4.09204 6.10156 3.96866 6.19889 3.90429 6.33377C3.83992 6.46866 3.84187 6.6258 3.90958 6.75904L4.33862 6.54104ZM14.7134 9.9811C14.6812 9.70897 14.6815 9.32161 14.8206 9.03099C14.8848 8.89705 14.975 8.79025 15.1062 8.71533C15.2397 8.63911 15.4507 8.576 15.7873 8.59043L15.8286 7.62881C15.3537 7.60845 14.9536 7.69416 14.629 7.87945C14.3022 8.06604 14.0875 8.33342 13.9525 8.61541C13.6934 9.15665 13.719 9.76814 13.7576 10.0944L14.7134 9.9811ZM15.7873 8.59043C17.3664 8.65813 19.0051 9.0015 19.6166 9.16229L19.8614 8.23143C19.2046 8.05872 17.4953 7.70027 15.8286 7.62881L15.7873 8.59043ZM19.3216 8.45726C18.8442 9.28887 17.9131 10.256 16.9688 10.6736C16.5041 10.8791 16.0809 10.9326 15.7193 10.8263C15.3682 10.7231 14.9923 10.4447 14.6618 9.81427L13.8093 10.2612C14.229 11.0617 14.7874 11.5556 15.4478 11.7498C16.0978 11.9409 16.7634 11.8169 17.3581 11.5539C18.5328 11.0343 19.6032 9.90006 20.1563 8.93647L19.3216 8.45726ZM10.2395 8.21846C10.2951 7.89474 10.3528 7.28494 10.1221 6.73164C10.0018 6.44318 9.80082 6.1654 9.48336 5.96329C9.16821 5.76266 8.77265 5.65842 8.29739 5.65661L8.29371 6.61911C8.63074 6.6204 8.83779 6.69331 8.96646 6.77523C9.09282 6.85567 9.17689 6.96584 9.23371 7.10209C9.35719 7.39822 9.3374 7.78487 9.29091 8.05547L10.2395 8.21846ZM8.29739 5.65661C6.62896 5.65024 4.90313 5.92853 4.23821 6.07038L4.43903 7.0117C5.05826 6.8796 6.71299 6.61308 8.29371 6.61911L8.29739 5.65661ZM3.90958 6.75904C4.41196 7.74778 5.42224 8.93133 6.56918 9.50542C7.1501 9.7962 7.8086 9.9509 8.46735 9.79046C9.13617 9.62757 9.71885 9.16112 10.1795 8.38186L9.35093 7.89207C8.98741 8.50703 8.59661 8.76834 8.23959 8.85529C7.87248 8.9447 7.45275 8.87134 7 8.64472C6.07959 8.18401 5.20074 7.17537 4.76767 6.32304L3.90958 6.75904Z" fill="#700099" mask="url(#path-1-outside-1_903_138)"/>
<path d="M7.5635 7.76007C7.5635 7.63471 7.67111 7.53308 7.80385 7.53308C8.89574 7.53308 9.73389 7.7841 10.3718 8.19913C11.0087 8.6135 11.4284 9.17987 11.7047 9.78387C11.9796 10.3846 12.116 11.031 12.1836 11.6185C12.8398 10.4242 14.2487 9.34902 16.2159 9.34902C16.3486 9.34902 16.4562 9.45065 16.4562 9.57601C16.4562 9.70137 16.3486 9.803 16.2159 9.803C13.7095 9.803 12.2502 11.7399 12.2502 13.0944V18.209L14.085 17.5272C14.2427 17.4686 14.4133 17.5784 14.4133 17.7384C14.4133 17.8317 14.3529 17.9155 14.261 17.9497L12.0979 18.7534C12.0413 18.7744 11.9784 18.7744 11.9219 18.7534L9.75878 17.9497C9.66686 17.9155 9.60643 17.8317 9.60643 17.7384C9.60643 17.5784 9.77708 17.4686 9.93477 17.5272L11.7695 18.209V13.0944C11.7695 12.3514 11.7667 11.0639 11.2635 9.96394C11.0141 9.4188 10.6452 8.92826 10.0991 8.57299C9.55408 8.21839 8.81497 7.98707 7.80385 7.98707C7.67111 7.98707 7.5635 7.88544 7.5635 7.76007Z" fill="#700099"/>
<path d="M6.24161 16.3095C6.24161 16.2162 6.18118 16.1324 6.08926 16.0983L4.76737 15.6071C4.64385 15.5612 4.50432 15.6185 4.45572 15.7352C4.40712 15.8518 4.46786 15.9836 4.59138 16.0295L5.91327 16.5207C6.07096 16.5793 6.24161 16.4695 6.24161 16.3095Z" fill="#700099"/>
<path d="M18.1065 16.5207C17.9488 16.5793 17.7781 16.4695 17.7781 16.3095C17.7781 16.2162 17.8386 16.1324 17.9305 16.0983L19.2524 15.6071C19.3759 15.5612 19.5154 15.6185 19.564 15.7352C19.6126 15.8518 19.5519 15.9836 19.4284 16.0295L18.1065 16.5207Z" fill="#700099"/>
<path d="M16.5764 17.0666C16.5764 17.3174 16.3612 17.5206 16.0957 17.5206C15.8302 17.5206 15.615 17.3174 15.615 17.0666C15.615 16.8159 15.8302 16.6127 16.0957 16.6127C16.3612 16.6127 16.5764 16.8159 16.5764 17.0666Z" fill="#FFD147"/>
<path d="M8.40469 17.0666C8.40469 17.3174 8.18948 17.5206 7.924 17.5206C7.65853 17.5206 7.44332 17.3174 7.44332 17.0666C7.44332 16.8159 7.65853 16.6127 7.924 16.6127C8.18948 16.6127 8.40469 16.8159 8.40469 17.0666Z" fill="#FFD147"/>
</svg>
