<svg width="25" height="25" viewBox="0 0 25 25" fill="none" xmlns="http://www.w3.org/2000/svg">
<path d="M13.5114 13.5255C13.6008 13.2636 13.8203 13.0514 14.0944 13.0514C14.4102 13.0514 14.6651 13.3282 14.5709 13.6331C14.5139 13.8176 14.4368 13.9908 14.3395 14.1527C14.146 14.4723 13.8741 14.7242 13.5239 14.9085C13.1738 15.0928 12.7481 15.1849 12.2471 15.1849C11.8628 15.1849 11.5169 15.1158 11.2094 14.9776C10.9019 14.8365 10.6386 14.6379 10.4194 14.3816C10.2002 14.1225 10.0322 13.8101 9.9155 13.4444C9.80163 13.0787 9.74469 12.6699 9.74469 12.2178V11.6952C9.74469 11.2432 9.80305 10.8343 9.91977 10.4687C10.0393 10.103 10.2102 9.79058 10.4322 9.53144C10.6543 9.26943 10.9204 9.06932 11.2308 8.93111C11.5439 8.7929 11.8955 8.7238 12.2855 8.7238C12.7809 8.7238 13.1994 8.81594 13.541 9.00021C13.8826 9.18449 14.1474 9.4393 14.3353 9.76466C14.4326 9.93071 14.5107 10.1091 14.5695 10.2999C14.6633 10.6043 14.4114 10.8833 14.0961 10.8833C13.8242 10.8833 13.6064 10.6716 13.5209 10.4105C13.495 10.3313 13.4647 10.2571 13.43 10.1879C13.336 9.99501 13.1965 9.84816 13.0115 9.74739C12.8264 9.64373 12.5844 9.59191 12.2855 9.59191C12.0407 9.59191 11.8272 9.63798 11.645 9.73011C11.4628 9.82225 11.3105 9.95758 11.1881 10.1361C11.0656 10.3146 10.9731 10.5349 10.9105 10.7969C10.8507 11.056 10.8208 11.3526 10.8208 11.6866V12.2178C10.8208 12.5345 10.8479 12.8225 10.9019 13.0816C10.9589 13.3379 11.0443 13.5581 11.1582 13.7424C11.2749 13.9267 11.4229 14.0692 11.6023 14.17C11.7816 14.2708 11.9966 14.3211 12.2471 14.3211C12.5517 14.3211 12.798 14.2722 12.9859 14.1743C13.1766 14.0764 13.3204 13.9339 13.4172 13.7467C13.453 13.6784 13.4844 13.6047 13.5114 13.5255Z" fill="#FFD147"/>
<path d="M9.74349 16.9891C9.74349 17.2764 9.51318 17.5094 9.22907 17.5094C8.94497 17.5094 8.71466 17.2764 8.71466 16.9891C8.71466 16.7018 8.94497 16.4688 9.22907 16.4688C9.51318 16.4688 9.74349 16.7018 9.74349 16.9891Z" fill="#FFD147"/>
<path d="M15.5888 6.75219C15.5888 7.03953 15.3585 7.27246 15.0744 7.27246C14.7903 7.27246 14.56 7.03953 14.56 6.75219C14.56 6.46485 14.7903 6.23192 15.0744 6.23192C15.3585 6.23192 15.5888 6.46485 15.5888 6.75219Z" fill="#FFD147"/>
<path d="M12.9186 5.21425L13.2316 5.41208C13.301 5.45594 13.3429 5.53122 13.3429 5.612C13.3429 5.80065 13.1291 5.91437 12.9671 5.81193L12.6541 5.6141C12.3321 5.4106 11.918 5.4106 11.596 5.6141L7.29683 8.33146C7.01922 8.50692 6.85158 8.80802 6.85158 9.13116V14.7609C6.85158 15.0841 7.01922 15.3852 7.29683 15.5606L7.38589 15.6169C7.45529 15.6608 7.4972 15.7361 7.4972 15.8169C7.4972 16.0055 7.28344 16.1192 7.12137 16.0168L7.03231 15.9605C6.6159 15.6973 6.36444 15.2456 6.36444 14.7609V9.13116C6.36444 8.64645 6.6159 8.1948 7.03231 7.9316L11.3315 5.21425C11.8145 4.90899 12.4357 4.90899 12.9186 5.21425Z" fill="#700099"/>
<path d="M10.9072 18.2801C10.9072 18.3609 10.9491 18.4361 11.0185 18.48L11.3315 18.6778C11.8144 18.9831 12.4357 18.9831 12.9186 18.6778L17.2178 15.9605C17.6342 15.6973 17.8857 15.2456 17.8857 14.7609V9.13116C17.8857 8.64645 17.6342 8.1948 17.2178 7.9316L17.1287 7.87531C16.9667 7.77288 16.7529 7.88659 16.7529 8.07524C16.7529 8.15602 16.7948 8.2313 16.8642 8.27517L16.9533 8.33146C17.2309 8.50692 17.3985 8.80802 17.3985 9.13116V14.7609C17.3985 15.0841 17.2309 15.3852 16.9533 15.5606L12.6541 18.278C12.3321 18.4815 11.918 18.4815 11.596 18.278L11.283 18.0802C11.121 17.9777 10.9072 18.0914 10.9072 18.2801Z" fill="#700099"/>
<path d="M15.3072 12.8024C15.2739 12.8024 15.2477 12.7902 15.2285 12.7659C15.2105 12.7403 15.2041 12.7096 15.2093 12.6737L15.4032 11.5409C15.407 11.5153 15.4179 11.4954 15.4358 11.4814C15.4537 11.466 15.4749 11.4583 15.4992 11.4583C15.5337 11.4583 15.5606 11.4711 15.5798 11.4967C15.599 11.521 15.6054 11.5511 15.599 11.587L15.4051 12.7198C15.4013 12.7441 15.3904 12.764 15.3725 12.7793C15.3545 12.7947 15.3328 12.8024 15.3072 12.8024ZM15.2419 11.9595C15.2125 11.9595 15.1875 11.9499 15.167 11.9307C15.1478 11.9102 15.1382 11.8852 15.1382 11.8558C15.1382 11.8276 15.1478 11.8046 15.167 11.7866C15.1875 11.7687 15.2125 11.7598 15.2419 11.7598H16.1559C16.1853 11.7598 16.2096 11.77 16.2288 11.7905C16.2493 11.8097 16.2595 11.834 16.2595 11.8634C16.2595 11.8916 16.2493 11.9147 16.2288 11.9326C16.2096 11.9505 16.1853 11.9595 16.1559 11.9595H15.2419ZM15.8275 12.8024C15.793 12.8024 15.7661 12.7902 15.7469 12.7659C15.7277 12.7403 15.7213 12.7096 15.7277 12.6737L15.9216 11.5409C15.9254 11.5153 15.9363 11.4954 15.9542 11.4814C15.9722 11.466 15.9939 11.4583 16.0195 11.4583C16.0528 11.4583 16.079 11.4711 16.0982 11.4967C16.1175 11.521 16.1239 11.5511 16.1175 11.587L15.9235 12.7198C15.9197 12.7441 15.9088 12.764 15.8909 12.7793C15.8742 12.7947 15.8531 12.8024 15.8275 12.8024ZM15.1709 12.4932C15.1414 12.4932 15.1164 12.4836 15.096 12.4644C15.0768 12.444 15.0672 12.419 15.0672 12.3896C15.0672 12.3614 15.0768 12.3383 15.096 12.3204C15.1164 12.3025 15.1414 12.2935 15.1709 12.2935H16.0867C16.1162 12.2935 16.1405 12.3038 16.1597 12.3243C16.1802 12.3435 16.1904 12.3678 16.1904 12.3972C16.1904 12.4254 16.1802 12.4484 16.1597 12.4664C16.1405 12.4843 16.1162 12.4932 16.0867 12.4932H15.1709Z" fill="#700099"/>
</svg>
