<svg width="25" height="25" viewBox="0 0 25 25" fill="none" xmlns="http://www.w3.org/2000/svg">
<path d="M13.4901 13.5255C13.5795 13.2635 13.799 13.0514 14.0731 13.0514C14.3889 13.0514 14.6438 13.3282 14.5496 13.6331C14.4926 13.8175 14.4155 13.9907 14.3182 14.1527C14.1247 14.4723 13.8528 14.7242 13.5026 14.9085C13.1525 15.0928 12.7268 15.1849 12.2258 15.1849C11.8415 15.1849 11.4956 15.1158 11.1881 14.9776C10.8806 14.8365 10.6173 14.6378 10.3981 14.3816C10.1789 14.1225 10.0109 13.8101 9.8942 13.4444C9.78033 13.0787 9.72339 12.6699 9.72339 12.2178V11.6952C9.72339 11.2432 9.78175 10.8343 9.89847 10.4686C10.018 10.103 10.1889 9.79056 10.4109 9.53143C10.633 9.26941 10.8991 9.0693 11.2095 8.93109C11.5226 8.79289 11.8742 8.72379 12.2642 8.72379C12.7596 8.72379 13.1781 8.81592 13.5197 9.0002C13.8613 9.18447 14.1261 9.43929 14.314 9.76465C14.4113 9.93069 14.4894 10.1091 14.5482 10.2999C14.642 10.6043 14.3901 10.8833 14.0748 10.8833C13.8029 10.8833 13.5851 10.6716 13.4996 10.4105C13.4737 10.3313 13.4434 10.2571 13.4087 10.1879C13.3147 9.99499 13.1752 9.84815 12.9902 9.74737C12.8051 9.64372 12.5631 9.59189 12.2642 9.59189C12.0194 9.59189 11.8059 9.63796 11.6237 9.7301C11.4415 9.82223 11.2892 9.95756 11.1668 10.1361C11.0443 10.3146 10.9518 10.5349 10.8892 10.7969C10.8294 11.056 10.7995 11.3526 10.7995 11.6866V12.2178C10.7995 12.5345 10.8266 12.8225 10.8806 13.0816C10.9376 13.3378 11.023 13.5581 11.1369 13.7424C11.2536 13.9267 11.4016 14.0692 11.581 14.17C11.7603 14.2707 11.9753 14.3211 12.2258 14.3211C12.5304 14.3211 12.7767 14.2722 12.9646 14.1743C13.1553 14.0764 13.2991 13.9339 13.3959 13.7467C13.4317 13.6784 13.4631 13.6047 13.4901 13.5255Z" fill="#FFD147"/>
<path d="M9.72219 16.9891C9.72219 17.2765 9.49188 17.5094 9.20777 17.5094C8.92367 17.5094 8.69336 17.2765 8.69336 16.9891C8.69336 16.7018 8.92367 16.4689 9.20777 16.4689C9.49188 16.4689 9.72219 16.7018 9.72219 16.9891Z" fill="#FFD147"/>
<path d="M15.5675 6.75222C15.5675 7.03956 15.3372 7.27249 15.0531 7.27249C14.769 7.27249 14.5387 7.03956 14.5387 6.75222C14.5387 6.46488 14.769 6.23195 15.0531 6.23195C15.3372 6.23195 15.5675 6.46488 15.5675 6.75222Z" fill="#FFD147"/>
<path d="M14.5845 12.2253C14.5538 12.2253 14.5282 12.2151 14.5077 12.1946C14.4872 12.1741 14.477 12.1485 14.477 12.1178C14.477 12.0871 14.4872 12.0621 14.5077 12.0429C14.5282 12.0237 14.5538 12.0141 14.5845 12.0141H15.366C15.3967 12.0141 15.4223 12.0244 15.4428 12.0449C15.4632 12.0641 15.4735 12.089 15.4735 12.1197C15.4735 12.1505 15.4632 12.1761 15.4428 12.1965C15.4223 12.2157 15.3967 12.2253 15.366 12.2253H14.5845ZM14.9723 12.5998C14.9365 12.5998 14.9064 12.5882 14.8821 12.5652C14.8591 12.5422 14.8475 12.5127 14.8475 12.4769V11.728C14.8475 11.6922 14.8597 11.6628 14.884 11.6397C14.9083 11.6167 14.9384 11.6052 14.9743 11.6052C15.0114 11.6052 15.0408 11.6167 15.0626 11.6397C15.0856 11.6628 15.0972 11.6922 15.0972 11.728V12.4769C15.0972 12.5127 15.0856 12.5422 15.0626 12.5652C15.0396 12.5882 15.0095 12.5998 14.9723 12.5998ZM15.9441 12.2253C15.9134 12.2253 15.8878 12.2151 15.8673 12.1946C15.8469 12.1741 15.8366 12.1485 15.8366 12.1178C15.8366 12.0871 15.8469 12.0621 15.8673 12.0429C15.8878 12.0237 15.9134 12.0141 15.9441 12.0141H16.7256C16.7563 12.0141 16.7819 12.0244 16.8024 12.0449C16.8229 12.0641 16.8331 12.089 16.8331 12.1197C16.8331 12.1505 16.8229 12.1761 16.8024 12.1965C16.7819 12.2157 16.7563 12.2253 16.7256 12.2253H15.9441ZM16.332 12.5998C16.2962 12.5998 16.2661 12.5882 16.2418 12.5652C16.2187 12.5422 16.2072 12.5127 16.2072 12.4769V11.728C16.2072 11.6922 16.2194 11.6628 16.2437 11.6397C16.268 11.6167 16.2981 11.6052 16.3339 11.6052C16.371 11.6052 16.4005 11.6167 16.4222 11.6397C16.4453 11.6628 16.4568 11.6922 16.4568 11.728V12.4769C16.4568 12.5127 16.4453 12.5422 16.4222 12.5652C16.3992 12.5882 16.3691 12.5998 16.332 12.5998Z" fill="#700099"/>
<path d="M12.8973 5.21425L13.2103 5.41208C13.2797 5.45594 13.3216 5.53122 13.3216 5.612C13.3216 5.80065 13.1078 5.91437 12.9458 5.81193L12.6328 5.6141C12.3108 5.4106 11.8967 5.4106 11.5747 5.6141L7.27553 8.33146C6.99792 8.50692 6.83028 8.80802 6.83028 9.13116V14.7609C6.83028 15.0841 6.99792 15.3852 7.27553 15.5606L7.36459 15.6169C7.43399 15.6608 7.4759 15.7361 7.4759 15.8169C7.4759 16.0055 7.26214 16.1192 7.10007 16.0168L7.01101 15.9605C6.5946 15.6973 6.34314 15.2456 6.34314 14.7609V9.13116C6.34314 8.64645 6.5946 8.1948 7.01101 7.9316L11.3102 5.21425C11.7931 4.90899 12.4144 4.90899 12.8973 5.21425Z" fill="#700099"/>
<path d="M10.8859 18.2801C10.8859 18.3609 10.9278 18.4361 10.9972 18.48L11.3102 18.6778C11.7931 18.9831 12.4144 18.9831 12.8973 18.6778L17.1965 15.9605C17.6129 15.6973 17.8644 15.2456 17.8644 14.7609V9.13116C17.8644 8.64645 17.6129 8.1948 17.1965 7.9316L17.1074 7.87531C16.9454 7.77288 16.7316 7.88659 16.7316 8.07524C16.7316 8.15602 16.7735 8.2313 16.8429 8.27517L16.932 8.33146C17.2096 8.50692 17.3772 8.80802 17.3772 9.13116V14.7609C17.3772 15.0841 17.2096 15.3852 16.932 15.5606L12.6328 18.278C12.3108 18.4815 11.8967 18.4815 11.5747 18.278L11.2617 18.0802C11.0997 17.9777 10.8859 18.0914 10.8859 18.2801Z" fill="#700099"/>
</svg>
