<svg width="25" height="25" viewBox="0 0 25 25" fill="none" xmlns="http://www.w3.org/2000/svg">
<path d="M13.6529 7.15031L16.0334 7.85442L14.3245 8.91547C14.2572 8.95726 14.2148 9.02948 14.211 9.1086C14.2073 9.18772 14.2428 9.2636 14.3058 9.31151L15.1578 9.95867C15.2365 10.0185 15.3438 10.024 15.4283 9.97269L17.984 8.41951C18.0813 8.3604 18.1238 8.24121 18.086 8.13387L17.7227 7.10358C17.7166 7.08494 17.7081 7.06677 17.6971 7.04951C17.6944 7.0453 17.6916 7.04118 17.6887 7.03715C17.6566 6.99285 17.612 6.96259 17.5631 6.94794L13.7922 5.78363C13.7192 5.76109 13.6398 5.77456 13.5783 5.81992C13.5168 5.86528 13.4806 5.93715 13.4806 6.01355V6.91957C13.4806 7.02618 13.5507 7.12008 13.6529 7.15031Z" fill="#FFD147" stroke="#700099" stroke-width="0.481254" stroke-linecap="round" stroke-linejoin="round"/>
<path d="M10.4306 7.27045C10.4178 7.18908 10.3643 7.11989 10.2888 7.08704C10.2133 7.0542 10.1262 7.06227 10.058 7.10843L6.04183 9.82649C5.98388 9.8657 5.94588 9.92819 5.93771 9.99768L5.81601 11.0331C5.80495 11.1273 5.85016 11.2191 5.9315 11.2677C6.01284 11.3164 6.11515 11.3127 6.19284 11.2585L10.4524 8.28153C10.5277 8.22887 10.5665 8.13787 10.5523 8.04704L10.4306 7.27045Z" fill="#FFD147" stroke="#700099" stroke-width="0.481254" stroke-linecap="round" stroke-linejoin="round"/>
<path d="M6.79193 6.97495C6.72264 6.9312 6.63585 6.92571 6.56161 6.96039C6.48736 6.99508 6.43587 7.06516 6.42496 7.14637L6.30326 8.05239C6.29145 8.14033 6.32899 8.22764 6.40095 8.27956L10.7062 11.3859C10.786 11.4435 10.8928 11.4467 10.9758 11.394C11.0589 11.3414 11.1016 11.2434 11.0836 11.1467L10.7945 9.59356C10.7822 9.52769 10.743 9.46992 10.6864 9.43414L6.79193 6.97495Z" fill="#FFD147" stroke="#700099" stroke-width="0.481254" stroke-linecap="round" stroke-linejoin="round"/>
<path d="M5.68994 12.3549L7.70668 14.5596C8.08684 14.9752 8.74104 14.977 9.12348 14.5635L11.1662 12.3549" stroke="#700099" stroke-width="0.481254" stroke-linecap="round"/>
<path d="M7.41931 4.3313C6.75715 4.3313 6.21654 4.89438 6.20271 5.59843L6.17844 6.83495C6.17766 6.87491 6.17421 6.91294 6.16783 6.95123C6.12225 7.22483 6.07032 7.52278 6.01511 7.83955C5.82273 8.94327 5.59053 10.2755 5.44825 11.6023C5.3239 12.7619 5.26505 13.941 5.36786 14.9782C5.38059 15.1066 5.48358 15.2021 5.60498 15.2021C5.75228 15.2021 5.86529 15.0634 5.85015 14.9076C5.75616 13.9397 5.8084 12.8123 5.93186 11.661C6.07199 10.3542 6.29979 9.04695 6.49183 7.94493C6.54762 7.62481 6.60038 7.322 6.64711 7.04155C6.65804 6.97595 6.66379 6.91129 6.66508 6.84576L6.68935 5.60924C6.69764 5.1868 7.02201 4.84896 7.41931 4.84896H9.38639C9.78962 4.84896 10.1165 5.1966 10.1165 5.62544V6.78951C10.1165 6.89724 10.1288 7.00261 10.1533 7.10676C10.3973 8.14432 10.7253 9.80492 10.8849 11.5133C11.0454 13.2319 11.0308 14.957 10.6182 16.148C10.1602 17.4703 9.84389 18.3029 9.65036 18.7879C9.54652 19.0482 9.30447 19.214 9.02811 19.214H7.61176C7.40098 19.214 7.20709 19.1181 7.07488 18.959C7.01219 18.8835 6.92785 18.8257 6.83316 18.8257H6.54338C6.50262 18.8257 6.47438 18.869 6.48867 18.9096C6.66469 19.4096 7.11468 19.7316 7.61176 19.7316H9.02811C9.48921 19.7316 9.91423 19.4519 10.0984 18.9901C10.2956 18.4959 10.6148 17.6554 11.075 16.3269C11.5282 15.0186 11.5309 13.1926 11.3692 11.4621C11.2067 9.72129 10.8733 8.03477 10.6255 6.98118C10.6106 6.91774 10.6032 6.85454 10.6032 6.78951V5.62544C10.6032 4.91071 10.0584 4.3313 9.38639 4.3313H7.41931Z" fill="#700099"/>
<ellipse cx="5.93376" cy="17.0144" rx="0.487169" ry="0.518112" fill="#FFD147"/>
<ellipse cx="13.965" cy="13.9085" rx="0.487169" ry="0.518112" fill="#FFD147"/>
<path fill-rule="evenodd" clip-rule="evenodd" d="M14.3753 4.46066C13.7033 4.46066 13.1585 5.04007 13.1585 5.75481V6.87546C12.6633 7.10894 12.0652 7.55448 11.7307 8.22503C11.3471 8.99401 11.3377 10.0026 12.1053 11.2061L12.1137 11.2193L12.1235 11.2312C12.3193 11.4692 12.5264 11.7259 12.7321 11.997C12.7795 12.0594 12.8508 12.0961 12.9262 12.0961C13.1304 12.0961 13.2453 11.8492 13.1172 11.6801C12.9065 11.4021 12.6961 11.1412 12.4998 10.9025C11.8235 9.83486 11.8772 9.0358 12.1607 8.46764C12.3735 8.04102 12.7306 7.7147 13.0818 7.49755C13.0672 7.69728 13.0749 7.92321 13.1327 8.16183C13.2514 8.65125 13.5707 9.1557 14.2478 9.59885C14.8306 9.98026 15.3638 10.6924 15.7976 11.4566C16.2278 12.2147 16.5432 12.9936 16.7006 13.4744C16.7938 13.7658 16.9638 14.2112 17.1871 14.6021C17.2988 14.7976 17.4288 14.9881 17.5752 15.1397C17.6623 15.2297 17.7614 15.3125 17.872 15.3725C17.6673 16.5837 17.4355 17.7125 17.2464 18.5263C17.17 18.8549 16.8887 19.0845 16.5615 19.0845H15.9462C15.584 19.0845 15.2766 18.8021 15.2239 18.421L14.881 15.9409C14.8634 15.8139 14.7609 15.7197 14.6402 15.7197C14.4917 15.7197 14.3778 15.86 14.3994 16.0162L14.7423 18.4963C14.8302 19.1315 15.3426 19.6022 15.9462 19.6022H16.5615C17.1035 19.6022 17.5867 19.2194 17.7189 18.6505C17.9219 17.7772 18.1723 16.5505 18.3873 15.2468C18.5355 14.3485 18.6879 13.4004 18.7552 12.505C18.9376 10.0807 18.3685 7.99041 17.9804 7.03758C17.9311 6.91646 17.9042 6.79437 17.9042 6.67513L17.9042 5.75481C17.9042 5.04007 17.3594 4.46066 16.6874 4.46066H14.3753ZM18.2701 12.4637C18.213 13.2222 18.0925 14.0247 17.9638 14.8165C17.9478 14.8019 17.9314 14.786 17.9147 14.7687C17.8082 14.6584 17.7027 14.5076 17.6031 14.3332C17.4039 13.9847 17.2473 13.5764 17.1611 13.3069L17.1606 13.3052C16.9933 12.7939 16.6639 11.9814 16.2143 11.1891C15.7678 10.4025 15.1856 9.60482 14.5029 9.15798C13.9145 8.77288 13.6862 8.37143 13.6041 8.0326C13.5196 7.68415 13.5791 7.36206 13.638 7.11173L13.6452 7.08082V5.75481C13.6452 5.32597 13.9721 4.97832 14.3753 4.97832H16.6874C17.0906 4.97832 17.4175 5.32597 17.4175 5.75481L17.4175 6.67514C17.4175 6.87736 17.463 7.06951 17.5338 7.24335C17.8964 8.13372 18.4449 10.139 18.2701 12.4637Z" fill="#700099"/>
</svg>
