<svg width="25" height="25" viewBox="0 0 25 25" fill="none" xmlns="http://www.w3.org/2000/svg">
<path d="M17.8159 10.3558C17.798 10.1065 17.7481 9.79296 17.6094 9.48363C17.3837 8.9801 16.9323 8.50763 16.0754 8.30989L15.8826 8.26541L15.8017 8.44593C15.3733 9.40168 15.4503 10.1208 15.754 10.6111C16.0121 11.0278 16.4232 11.2555 16.7436 11.3024C17.3021 11.9513 17.9165 12.2456 18.5691 12.2289C19.232 12.2119 19.884 11.8743 20.5029 11.3792L20.7128 11.2112L20.5227 11.0211C20.3141 10.8124 19.8885 10.5212 19.3546 10.3594C18.9063 10.2235 18.3692 10.1757 17.8159 10.3558Z" stroke="#700099" stroke-width="0.481254" stroke-linecap="round"/>
<rect x="13.254" y="9.1459" width="1.44403" height="1.44403" rx="0.240627" fill="#FFD147"/>
<rect x="11.329" y="9.1459" width="1.44403" height="1.44403" rx="0.240627" fill="#FFD147"/>
<rect x="9.40399" y="9.1459" width="1.44403" height="1.44403" rx="0.240627" fill="#FFD147"/>
<rect x="7.47894" y="9.14578" width="1.44403" height="1.44403" rx="0.240627" fill="#FFD147"/>
<rect x="7.47894" y="7.46141" width="1.44403" height="1.44403" rx="0.240627" fill="#FFD147"/>
<rect x="9.40399" y="7.4615" width="1.44403" height="1.44403" rx="0.240627" fill="#FFD147"/>
<rect x="11.329" y="7.4615" width="1.44403" height="1.44403" rx="0.240627" fill="#FFD147"/>
<rect x="11.329" y="5.77707" width="1.44403" height="1.44403" rx="0.240627" fill="#FFD147"/>
<rect x="5.55389" y="9.14578" width="1.44403" height="1.44403" rx="0.240627" fill="#FFD147"/>
<path d="M3.7492 11.4655C3.79168 11.2377 3.99054 11.0724 4.22233 11.0724H16.8531V11.5006C16.925 12.1474 16.832 12.8725 16.1126 14.0334C16.0126 14.1948 15.9017 14.3552 15.7791 14.5131C15.6764 14.6454 15.475 14.6257 15.3913 14.4806C15.3402 14.3922 15.35 14.2817 15.4122 14.2008C16.3303 13.0074 16.4429 12.1667 16.3748 11.5537H4.22233C3.87859 13.3974 4.30331 14.6571 5.11199 15.4997C5.19046 15.5815 5.20951 15.7051 5.15285 15.8032C5.07559 15.937 4.8946 15.9664 4.78676 15.8558C4.56773 15.6311 4.37135 15.3781 4.20461 15.0938C3.66198 14.1685 3.46843 12.9715 3.7492 11.4655Z" fill="#700099"/>
<path d="M12.7444 17.2158C12.6872 17.1167 12.5685 17.0715 12.4589 17.1043C12.2798 17.158 12.0934 17.2072 11.8993 17.2516C11.1464 17.4237 9.96563 17.5242 8.75817 17.3788C8.65983 17.3669 8.56324 17.4138 8.51371 17.4996C8.42845 17.6473 8.51771 17.8343 8.68699 17.855C9.96634 18.0109 11.2103 17.9028 12.0065 17.7208C12.216 17.6729 12.4174 17.6195 12.611 17.5612C12.7572 17.5171 12.8207 17.348 12.7444 17.2158Z" fill="#700099"/>
<circle cx="14.4576" cy="16.3652" r="0.481682" fill="#FFD147"/>
<circle cx="6.75744" cy="16.8465" r="0.481682" fill="#FFD147"/>
</svg>
