<svg width="25" height="25" viewBox="0 0 25 25" fill="none" xmlns="http://www.w3.org/2000/svg">
<path d="M11.8823 4.47573C12.1081 4.22908 12.5076 4.31518 12.6181 4.63428C13.7539 7.91551 14.823 9.27697 15.6762 10.2082C15.7903 10.3328 15.9032 10.452 16.0139 10.5689C16.7468 11.3429 17.3859 12.0178 17.6997 13.5237C17.8991 14.4801 17.8099 15.3876 17.5072 16.1986C17.4759 16.2826 17.3965 16.3363 17.3091 16.3363C17.1498 16.3363 17.044 16.1653 17.1002 16.012C17.3687 15.2797 17.4457 14.4666 17.269 13.6186C16.9828 12.2453 16.428 11.658 15.7031 10.8906C14.7952 9.92952 13.6203 8.68589 12.372 5.26184C12.3158 5.10776 12.2595 4.94926 12.2031 4.78616C12.0968 4.9023 11.9832 5.02519 11.8638 5.15428L11.7596 5.26677C11.248 5.81923 10.6393 6.4766 10.0244 7.19905C9.98208 7.24873 9.92104 7.27737 9.85683 7.27737C9.66767 7.27737 9.56588 7.0501 9.69044 6.90372C10.3157 6.16897 10.9325 5.50292 11.4444 4.9502L11.4447 4.94992C11.6013 4.78082 11.7481 4.62233 11.8823 4.47573Z" fill="#700099"/>
<path d="M7.3117 10.448C7.23199 10.448 7.15849 10.4927 7.12118 10.5652C6.60226 11.5728 6.2561 12.614 6.2561 13.6186C6.2561 16.9957 8.91865 19.7334 12.2031 19.7334C13.0874 19.7334 13.9518 19.5252 14.7266 19.1529C14.8002 19.1175 14.8462 19.0409 14.8462 18.9574C14.8462 18.7907 14.672 18.6837 14.5249 18.7537C13.8168 19.0908 13.0238 19.2804 12.2031 19.2804C9.16194 19.2804 6.69662 16.7456 6.69662 13.6186C6.69662 12.7091 7.01337 11.7444 7.50597 10.7861C7.58409 10.6341 7.47888 10.448 7.3117 10.448Z" fill="#700099"/>
<ellipse cx="16.1681" cy="17.6956" rx="0.440902" ry="0.453343" fill="#FFD147"/>
<ellipse cx="8.45885" cy="8.86312" rx="0.440902" ry="0.453343" fill="#FFD147"/>
</svg>
