<svg width="25" height="25" viewBox="0 0 25 25" fill="none" xmlns="http://www.w3.org/2000/svg">
<path d="M4.56836 6.72751C4.56836 6.46714 4.78051 6.25607 5.04222 6.25607H19.2579C19.5196 6.25607 19.7318 6.46714 19.7318 6.72751V17.0992C19.7318 17.3595 19.5196 17.5706 19.2579 17.5706H14.0455C13.9146 17.5706 13.8086 17.4651 13.8086 17.3349C13.8086 17.2047 13.9146 17.0992 14.0455 17.0992H19.2579V6.72751H5.04222V10.499C5.04222 10.6292 4.93614 10.7347 4.80529 10.7347C4.67444 10.7347 4.56836 10.6292 4.56836 10.499V6.72751Z" fill="#700099"/>
<path d="M4.80529 14.0348C4.67444 14.0348 4.56836 14.1403 4.56836 14.2705V17.0992C4.56836 17.3595 4.78051 17.5706 5.04222 17.5706H10.2546C10.3855 17.5706 10.4916 17.4651 10.4916 17.3349C10.4916 17.2047 10.3855 17.0992 10.2546 17.0992H5.04222V14.2705C5.04222 14.1403 4.93614 14.0348 4.80529 14.0348Z" fill="#700099"/>
<path d="M11.9964 12.5706C12.0853 12.6437 12.2135 12.6437 12.3023 12.5706L19.1736 6.913C19.252 6.84844 19.2814 6.7416 19.2471 6.64599C19.2128 6.55039 19.1222 6.48661 19.0206 6.48661L5.27808 6.48661C5.17651 6.48661 5.08588 6.55039 5.05158 6.64599C5.01729 6.7416 5.04672 6.84844 5.12513 6.913L11.9964 12.5706Z" fill="#FFD147" stroke="#700099" stroke-width="0.481254" stroke-linejoin="round"/>
<ellipse cx="12.1504" cy="17.3355" rx="0.474272" ry="0.471852" fill="#FFD147"/>
<ellipse cx="4.80569" cy="12.3851" rx="0.474272" ry="0.471852" fill="#FFD147"/>
<path d="M19.3773 17.218L13.5717 11.6777" stroke="#700099" stroke-width="0.481254" stroke-linecap="round"/>
<path d="M10.7292 11.6776L4.92358 17.2179" stroke="#700099" stroke-width="0.481254" stroke-linecap="round"/>
</svg>
