<svg width="25" height="25" viewBox="0 0 25 25" fill="none" xmlns="http://www.w3.org/2000/svg">
<path d="M13.3531 6.11769L13.9322 7.17505C14.0233 7.34126 13.8994 7.54187 13.7057 7.54187C13.6108 7.54187 13.5237 7.49101 13.4791 7.40961L12.9 6.35225C12.4973 5.61703 11.5931 5.60771 11.1797 6.33452L8.66085 10.6626L8.50448 10.9171C8.37085 11.1346 8.02745 11.0425 8.02745 10.7891C8.02745 10.7441 8.04 10.6998 8.06377 10.6612L8.21575 10.4138L10.7305 6.09301C11.0178 5.58776 11.5114 5.29052 12.0493 5.29607C12.5867 5.30161 13.0741 5.60833 13.3531 6.11769Z" fill="#700099"/>
<path d="M5.91836 14.5259C5.82802 14.5259 5.74433 14.572 5.698 14.6474L4.57539 16.4515C4.28325 16.927 4.28472 17.4862 4.47304 17.9257C4.65995 18.362 5.08076 18.7713 5.68646 18.7713C6.32037 18.7713 6.88335 18.4326 7.23898 17.9146L11.6782 11.4487C11.7993 11.2724 11.943 11.2197 12.0511 11.2197C12.1592 11.2197 12.3029 11.2724 12.424 11.4487L16.8684 17.9221C17.2208 18.4353 17.7789 18.7713 18.4077 18.7713C19.0139 18.7713 19.4325 18.3593 19.6161 17.9235C19.8011 17.4842 19.799 16.9256 19.501 16.454L16.1519 11.1544C16.1052 11.0805 16.0224 11.0355 15.9332 11.0355C15.7325 11.0355 15.6094 11.2494 15.7145 11.4156L19.0636 16.7153C19.469 17.3568 19.0833 18.2722 18.4077 18.2722C17.9763 18.2722 17.5678 18.0419 17.2954 17.645L12.851 11.1717C12.4381 10.5703 11.6641 10.5703 11.2512 11.1717L6.81201 17.6375C6.53629 18.0391 6.12296 18.2722 5.68646 18.2722C5.00794 18.2722 4.61634 17.3581 5.01611 16.7075L6.13871 14.9034C6.24091 14.737 6.11764 14.5259 5.91836 14.5259Z" fill="#700099"/>
<ellipse cx="14.8657" cy="9.28892" rx="0.513798" ry="0.499522" fill="#FFD147"/>
<ellipse cx="6.90906" cy="12.7826" rx="0.513798" ry="0.499522" fill="#FFD147"/>
</svg>
