<svg width="25" height="25" viewBox="0 0 25 25" fill="none" xmlns="http://www.w3.org/2000/svg">
<path d="M14.8131 9.80327L12.0457 4.52074L10.1205 8.15982" stroke="#FFD147" stroke-width="0.481254" stroke-linejoin="round"/>
<path d="M4.58606 2.64274C4.58606 2.54596 4.64694 2.45909 4.73939 2.42398C4.83183 2.38886 4.93689 2.4127 5.00397 2.484L13.0651 11.0528L12.7105 11.3703L5.06732 3.24572V10.3899C5.06732 10.5195 4.95959 10.6246 4.82669 10.6246C4.69379 10.6246 4.58606 10.5195 4.58606 10.3899V2.64274Z" fill="#700099"/>
<path d="M4.82669 13.9113C4.69379 13.9113 4.58606 14.0164 4.58606 14.146V17.9022H5.06732V14.146C5.06732 14.0164 4.95959 13.9113 4.82669 13.9113Z" fill="#700099"/>
<path d="M19.5052 6.86839C19.5052 6.68737 19.3985 6.52248 19.2311 6.44457C19.0636 6.36667 18.8651 6.38964 18.7209 6.5036L4.76439 17.5374C4.63638 17.6386 4.57033 17.7967 4.58934 17.9563C4.60835 18.116 4.70977 18.2551 4.85816 18.325L11.8364 21.6117C11.9686 21.6739 12.1227 21.6739 12.2549 21.6117L19.2332 18.325C19.3995 18.2467 19.5052 18.0824 19.5052 17.9022V15.5546C19.5052 15.4249 19.3975 15.3198 19.2646 15.3198C19.1317 15.3198 19.0239 15.4249 19.0239 15.5546V17.9022L12.0457 21.1888L5.06739 17.9022L19.0239 6.86839V11.7984C19.0239 11.928 19.1317 12.0331 19.2646 12.0331C19.3975 12.0331 19.5052 11.928 19.5052 11.7984V6.86839Z" fill="#700099"/>
<ellipse cx="19.2647" cy="13.6768" rx="0.481682" ry="0.469934" fill="#FFD147"/>
<ellipse cx="4.8272" cy="12.2683" rx="0.481682" ry="0.469934" fill="#FFD147"/>
</svg>
