<svg width="25" height="25" viewBox="0 0 25 25" fill="none" xmlns="http://www.w3.org/2000/svg">
<path d="M8.4028 9.70318C8.4028 9.46494 8.35304 9.22114 8.2198 9.02972C8.07856 8.82678 7.85764 8.70453 7.57593 8.70453C7.29423 8.70453 7.0733 8.82678 6.93205 9.02971C6.7988 9.22114 6.74903 9.46493 6.74903 9.70318C6.74903 9.81421 6.74461 9.9622 6.71938 10.0774C6.71269 10.1079 6.7057 10.1304 6.69967 10.1462C6.4951 10.1489 6.22933 10.1678 6.00122 10.2405C5.76112 10.317 5.45926 10.4929 5.45926 10.8669C5.45926 11.0444 5.53272 11.1887 5.65732 11.288C5.76998 11.3778 5.90949 11.4192 6.03222 11.441C6.2256 11.4754 6.45803 11.4719 6.63618 11.4692C6.65375 11.4689 6.67079 11.4687 6.68721 11.4684C6.69726 11.4956 6.7081 11.535 6.71766 11.5878C6.74485 11.7381 6.74903 11.9207 6.74903 12.0307C6.74903 12.269 6.7988 12.5128 6.93205 12.7042C7.0733 12.9071 7.29423 13.0294 7.57593 13.0294C7.85764 13.0294 8.07856 12.9071 8.2198 12.7042C8.35304 12.5128 8.4028 12.269 8.4028 12.0307C8.4028 11.9197 8.40722 11.7717 8.43245 11.6565C8.43914 11.626 8.44613 11.6035 8.45217 11.5877C8.65674 11.585 8.92251 11.5661 9.15062 11.4934C9.39072 11.4169 9.69257 11.241 9.69257 10.8669C9.69257 10.4929 9.39071 10.317 9.15061 10.2405C8.9225 10.1678 8.65674 10.1489 8.45217 10.1462C8.44613 10.1304 8.43914 10.1079 8.43245 10.0774C8.40722 9.9622 8.4028 9.81421 8.4028 9.70318Z" stroke="#FFD147" stroke-width="0.481254"/>
<ellipse cx="15.6599" cy="9.25705" rx="0.703597" ry="0.720762" fill="#FFD147"/>
<ellipse cx="15.6599" cy="12.4867" rx="0.703597" ry="0.720762" fill="#FFD147"/>
<ellipse cx="17.2402" cy="10.8676" rx="0.703597" ry="0.720762" fill="#FFD147"/>
<ellipse cx="14.0876" cy="10.8676" rx="0.703597" ry="0.720762" fill="#FFD147"/>
<path d="M7.81044 6.56913C7.81044 6.45652 7.73404 6.35901 7.62665 6.33494C7.58774 6.32622 7.54836 6.31742 7.50849 6.30854C6.83267 6.15806 6.23989 6.3431 5.74013 6.72612C5.24754 7.10364 4.84473 7.67263 4.51985 8.30256C3.87066 9.56132 3.49747 11.133 3.35795 12.1509C3.23926 12.8512 3.1515 13.6769 3.14777 14.4739C3.14405 15.2678 3.22343 16.0544 3.45304 16.6617C3.68415 17.2731 4.09063 17.7515 4.7527 17.802C5.38154 17.85 6.16486 17.5004 7.13673 16.6991L7.13956 16.6967L7.14231 16.6943C7.96902 15.9684 8.56175 15.4498 9.23427 15.1053C9.89681 14.766 10.65 14.5903 11.7967 14.5903C12.9434 14.5903 13.6966 14.766 14.3592 15.1053C15.0317 15.4498 15.6244 15.9684 16.4511 16.6943L16.4539 16.6967L16.4567 16.6991C17.4286 17.5004 18.2119 17.85 18.8407 17.802C19.5028 17.7515 19.9093 17.2731 20.1404 16.6617C20.1666 16.5925 20.1908 16.521 20.2131 16.4474C20.2586 16.2977 20.1448 16.1515 19.9917 16.1515C19.8835 16.1515 19.79 16.2267 19.7568 16.3322C19.74 16.3859 19.7221 16.4379 19.7031 16.4882C19.5062 17.0089 19.2151 17.2917 18.8059 17.3229C18.3638 17.3567 17.703 17.1094 16.7535 16.3271L16.7398 16.3151C15.933 15.6066 15.2983 15.0493 14.5689 14.6756C13.8245 14.2944 12.9949 14.1098 11.7967 14.1098C10.5985 14.1098 9.76894 14.2944 9.02455 14.6756C8.2951 15.0493 7.66045 15.6066 6.8536 16.3151L6.83988 16.3271C5.89045 17.1094 5.2296 17.3567 4.78756 17.3229C4.37831 17.2917 4.08719 17.0089 3.89036 16.4882C3.69203 15.9636 3.61313 15.2474 3.61674 14.4762C3.62033 13.7096 3.70518 12.9095 3.82065 12.2293L3.82131 12.2254L3.82185 12.2215C3.95632 11.2376 4.31811 9.72215 4.93451 8.52698C5.24284 7.92914 5.60607 7.42885 6.02107 7.11079C6.42891 6.79823 6.88527 6.66141 7.40888 6.778C7.4481 6.78673 7.48684 6.79539 7.52513 6.80397C7.67159 6.83679 7.81044 6.72272 7.81044 6.56913Z" fill="#700099"/>
<path d="M11.0933 7.3738C11.0933 7.49628 11.1836 7.59946 11.3029 7.60788C11.4582 7.61886 11.6199 7.6242 11.7967 7.6242C12.4043 7.6242 12.8321 7.56111 13.4444 7.42342C13.679 7.37067 13.9426 7.30653 14.2537 7.23082C14.3443 7.20877 14.439 7.18572 14.5381 7.1617C14.9789 7.05493 15.5123 6.92769 16.1845 6.778C16.7082 6.66141 17.1645 6.79823 17.5724 7.11079C17.9874 7.42885 18.3506 7.92914 18.6589 8.52698C19.2753 9.72215 19.6371 11.2376 19.7716 12.2215L19.7721 12.2254L19.7728 12.2293C19.7921 12.3431 19.8106 12.4603 19.8279 12.58C19.8452 12.6993 19.9446 12.7886 20.0623 12.7886C20.2041 12.7886 20.3137 12.6609 20.2929 12.5172C20.2748 12.392 20.2556 12.2697 20.2355 12.1509C20.096 11.133 19.7228 9.56132 19.0736 8.30256C18.7487 7.67263 18.3459 7.10364 17.8533 6.72612C17.3535 6.3431 16.7608 6.15806 16.0849 6.30854C15.4089 6.45907 14.8725 6.58703 14.4302 6.69418C14.3296 6.71855 14.2341 6.74179 14.1431 6.76394L14.1425 6.76408C13.8324 6.83954 13.5741 6.90239 13.3439 6.95417C12.7544 7.08673 12.3615 7.14378 11.7967 7.14378C11.6382 7.14378 11.4932 7.13929 11.3535 7.12989C11.2145 7.12053 11.0933 7.23108 11.0933 7.3738Z" fill="#700099"/>
<ellipse cx="20.0043" cy="14.4704" rx="0.469393" ry="0.480845" fill="#FFD147"/>
<ellipse cx="9.45224" cy="7.02381" rx="0.469393" ry="0.480845" fill="#FFD147"/>
</svg>
