<svg width="25" height="25" viewBox="0 0 25 25" fill="none" xmlns="http://www.w3.org/2000/svg">
<circle cx="12.0371" cy="11.7628" r="2.25536" fill="#FFD147" stroke="#700099" stroke-width="0.481254"/>
<circle cx="14.589" cy="9.21122" r="0.537692" fill="#700099"/>
<path d="M16.7375 6.79326H7.60482C7.30813 6.79326 7.06761 7.03378 7.06761 7.33047V9.74793C7.00377 10.0352 6.59424 10.0352 6.5304 9.74793V7.33047C6.5304 6.73708 7.01143 6.25604 7.60482 6.25604H16.7375C17.3309 6.25604 17.8119 6.73708 17.8119 7.33047V16.4631C17.8119 17.0565 17.3309 17.5375 16.7375 17.5375H14.0514C13.7641 17.4737 13.7641 17.0642 14.0514 17.0003H16.7375C17.0342 17.0003 17.2747 16.7598 17.2747 16.4631V7.33047C17.2747 7.03378 17.0342 6.79326 16.7375 6.79326Z" fill="#700099"/>
<path d="M10.2909 17.0003H7.60482C7.30813 17.0003 7.06761 16.7598 7.06761 16.4631V13.5084C7.00377 13.2211 6.59424 13.2211 6.5304 13.5084V16.4631C6.5304 17.0565 7.01143 17.5375 7.60482 17.5375H10.2909C10.5982 17.4903 10.5982 17.0476 10.2909 17.0003Z" fill="#700099"/>
<circle cx="12.1718" cy="17.2696" r="0.537692" fill="#FFD147"/>
<circle cx="6.79929" cy="11.6286" r="0.537692" fill="#FFD147"/>
</svg>
