<svg width="25" height="25" viewBox="0 0 25 25" fill="none" xmlns="http://www.w3.org/2000/svg">
<path d="M11.4596 16.805V12.6864H12.2266V16.805C12.2266 17.1885 12.148 17.5121 11.9909 17.7757C11.8337 18.0394 11.6167 18.2405 11.3397 18.3789C11.0654 18.5148 10.7498 18.5827 10.393 18.5827C10.0361 18.5827 9.71917 18.5214 9.44219 18.3989C9.16522 18.2764 8.94817 18.09 8.79104 17.8396C8.63392 17.5893 8.55535 17.2737 8.55535 16.8929H9.32635C9.32635 17.1379 9.37162 17.339 9.46217 17.4961C9.55272 17.6532 9.67789 17.7691 9.83768 17.8436C10.0001 17.9182 10.1852 17.9555 10.393 17.9555C10.5954 17.9555 10.7765 17.9129 10.9362 17.8277C11.0987 17.7398 11.2265 17.6106 11.3197 17.4402C11.413 17.2671 11.4596 17.0553 11.4596 16.805ZM17.6964 17.0327C17.6964 16.8969 17.6751 16.777 17.6325 16.6732C17.5925 16.5666 17.5206 16.4708 17.4167 16.3855C17.3155 16.3003 17.1744 16.2191 16.9933 16.1419C16.8149 16.0646 16.5885 15.9861 16.3142 15.9062C16.0266 15.8209 15.7669 15.7264 15.5352 15.6225C15.3035 15.516 15.1051 15.3948 14.94 15.259C14.7749 15.1232 14.6484 14.9674 14.5605 14.7916C14.4726 14.6159 14.4286 14.4148 14.4286 14.1884C14.4286 13.962 14.4753 13.753 14.5685 13.5612C14.6617 13.3695 14.7948 13.203 14.9679 13.0619C15.1437 12.9181 15.3528 12.8062 15.5951 12.7263C15.8375 12.6464 16.1078 12.6065 16.4061 12.6065C16.8428 12.6065 17.213 12.6904 17.5166 12.8581C17.8229 13.0233 18.0559 13.2403 18.2157 13.5093C18.3755 13.7756 18.4554 14.0606 18.4554 14.3642H17.6884C17.6884 14.1458 17.6418 13.9527 17.5486 13.7849C17.4554 13.6145 17.3142 13.4813 17.1251 13.3855C16.936 13.2869 16.6964 13.2377 16.4061 13.2377C16.1318 13.2377 15.9054 13.2789 15.7269 13.3615C15.5485 13.444 15.4154 13.5559 15.3275 13.6971C15.2422 13.8382 15.1996 13.9993 15.1996 14.1804C15.1996 14.3029 15.2249 14.4148 15.2755 14.516C15.3288 14.6145 15.41 14.7064 15.5192 14.7916C15.6311 14.8768 15.7722 14.9554 15.9427 15.0273C16.1158 15.0992 16.3222 15.1685 16.5619 15.235C16.8921 15.3283 17.1771 15.4321 17.4167 15.5466C17.6564 15.6612 17.8535 15.7903 18.008 15.9341C18.1651 16.0753 18.2809 16.2364 18.3555 16.4175C18.4328 16.5959 18.4714 16.7983 18.4714 17.0247C18.4714 17.2617 18.4234 17.4761 18.3276 17.6679C18.2317 17.8596 18.0945 18.0234 17.9161 18.1592C17.7377 18.295 17.5233 18.4002 17.2729 18.4748C17.0253 18.5467 16.7483 18.5827 16.442 18.5827C16.173 18.5827 15.908 18.5454 15.6471 18.4708C15.3887 18.3962 15.153 18.2844 14.94 18.1353C14.7296 17.9861 14.5605 17.8024 14.4326 17.584C14.3075 17.3629 14.2449 17.1073 14.2449 16.817H15.0119C15.0119 17.0167 15.0505 17.1885 15.1277 17.3323C15.205 17.4735 15.3102 17.5906 15.4433 17.6838C15.5791 17.7771 15.7323 17.8463 15.9027 17.8916C16.0758 17.9342 16.2556 17.9555 16.442 17.9555C16.711 17.9555 16.9387 17.9182 17.1251 17.8436C17.3115 17.7691 17.4527 17.6625 17.5486 17.5241C17.6471 17.3856 17.6964 17.2218 17.6964 17.0327Z" fill="#FFD147"/>
<path d="M5.12613 3.3689H18.9862C19.8064 3.3689 20.4713 4.05331 20.4713 4.89759V6.17149C20.4713 6.31221 20.3604 6.42628 20.2238 6.42628C20.0871 6.42628 19.9763 6.31221 19.9763 6.17149V4.89759C19.9763 4.33474 19.533 3.87846 18.9862 3.87846H5.12613C4.57936 3.87846 4.13612 4.33474 4.13612 4.89759V13.3054C4.13612 13.4461 4.02531 13.5602 3.88862 13.5602C3.75192 13.5602 3.64111 13.4461 3.64111 13.3054V4.89759C3.64111 4.05331 4.30598 3.3689 5.12613 3.3689Z" fill="#700099"/>
<path d="M3.88862 17.1271C3.75192 17.1271 3.64111 17.2412 3.64111 17.3819V19.1654C3.64111 20.0096 4.30598 20.694 5.12613 20.694H18.9862C19.8064 20.694 20.4713 20.0096 20.4713 19.1654V10.248C20.4713 10.1073 20.3604 9.99322 20.2238 9.99322C20.0871 9.99322 19.9763 10.1073 19.9763 10.248V19.1654C19.9763 19.7282 19.533 20.1845 18.9862 20.1845H5.12613C4.57936 20.1845 4.13612 19.7282 4.13612 19.1654V17.3819C4.13612 17.2412 4.02531 17.1271 3.88862 17.1271Z" fill="#700099"/>
<ellipse cx="20.2244" cy="8.21006" rx="0.495445" ry="0.510017" fill="#FFD147"/>
<ellipse cx="3.88912" cy="15.3442" rx="0.495445" ry="0.510017" fill="#FFD147"/>
</svg>
