<svg width="25" height="25" viewBox="0 0 25 25" fill="none" xmlns="http://www.w3.org/2000/svg">
<path d="M7.4859 20.4429C6.68852 20.4429 6.04211 19.7684 6.04211 18.9364V11.9058H6.52337V18.9364C6.52337 19.491 6.95431 19.9407 7.4859 19.9407H9.65157C9.78446 19.9407 9.8922 20.0531 9.8922 20.1918C9.8922 20.3305 9.78446 20.4429 9.65157 20.4429H7.4859Z" fill="#700099"/>
<path d="M13.261 20.1918C13.261 20.3305 13.3688 20.4429 13.5017 20.4429H19.0361C19.8335 20.4429 20.4799 19.7684 20.4799 18.9364V16.9276C20.4799 16.7889 20.3722 16.6765 20.2393 16.6765C20.1064 16.6765 19.9987 16.7889 19.9987 16.9276V18.9364C19.9987 19.491 19.5677 19.9407 19.0361 19.9407H13.5017C13.3688 19.9407 13.261 20.0531 13.261 20.1918Z" fill="#700099"/>
<path fill-rule="evenodd" clip-rule="evenodd" d="M19.9987 8.62901V12.9101C19.9987 13.0488 20.1064 13.1612 20.2393 13.1612C20.3722 13.1612 20.4799 13.0488 20.4799 12.9101V8.05322C20.4799 7.65365 20.3278 7.27045 20.0571 6.98792L17.0114 3.80988C16.7407 3.52735 16.3734 3.36862 15.9905 3.36862H7.4859C6.68852 3.36862 6.04211 4.04313 6.04211 4.87518V7.88829H6.52337V4.87518C6.52337 4.32048 6.95431 3.87081 7.4859 3.87081H15.4387C15.8374 3.87081 16.1606 4.20806 16.1606 4.62408V6.62027C16.1606 7.31364 16.6993 7.87573 17.3638 7.87573H19.2768C19.6755 7.87573 19.9987 8.21298 19.9987 8.62901ZM16.6419 4.62408C16.6419 4.40447 16.5878 4.19803 16.4929 4.01845C16.5571 4.05945 16.617 4.10851 16.6711 4.16498L19.7168 7.34302C19.7709 7.39949 19.8179 7.462 19.8572 7.52902C19.6851 7.42994 19.4872 7.37355 19.2768 7.37355H17.3638C16.9651 7.37355 16.6419 7.03629 16.6419 6.62027V4.62408Z" fill="#700099"/>
<rect x="3.15445" y="7.64774" width="8.90331" height="4.49873" rx="1.20314" stroke="#FFD147" stroke-width="0.481254"/>
<path d="M4.96174 10.3535V9.29959C4.96174 9.19834 5.0404 9.11627 5.13742 9.11627C5.23444 9.11627 5.31309 9.19834 5.31309 9.29959V10.3535C5.31309 10.4728 5.28803 10.5754 5.23789 10.6613C5.18775 10.7463 5.1192 10.8117 5.03225 10.8574C4.94607 10.9032 4.84893 10.9261 4.74083 10.9261C4.6288 10.9261 4.5297 10.9065 4.44353 10.8673C4.35735 10.828 4.28959 10.7679 4.24024 10.687C4.21737 10.6491 4.1998 10.6066 4.18753 10.5594C4.16194 10.4611 4.24539 10.3768 4.34306 10.3768H4.36729C4.45158 10.3768 4.51003 10.4529 4.54576 10.5325C4.56378 10.5709 4.58924 10.5983 4.62214 10.6147C4.65504 10.631 4.69461 10.6392 4.74083 10.6392C4.78548 10.6392 4.82426 10.6282 4.85716 10.6061C4.89006 10.584 4.91552 10.5517 4.93354 10.5092C4.95234 10.4667 4.96174 10.4148 4.96174 10.3535Z" fill="#FFD147"/>
<path d="M6.59657 9.42159L6.17038 10.7771C6.14703 10.8514 6.0806 10.9016 6.00569 10.9016C5.88489 10.9016 5.80114 10.7759 5.84322 10.6577L6.33293 9.28247C6.3685 9.18256 6.45988 9.11627 6.56202 9.11627C6.59857 9.11627 6.62694 9.14953 6.62271 9.1874L6.59657 9.42159ZM7.10889 10.9016C7.03388 10.9016 6.96734 10.8513 6.9439 10.777L6.51667 9.42159L6.48799 9.18871C6.48325 9.15029 6.51194 9.11627 6.54906 9.11627C6.65183 9.11627 6.7438 9.18286 6.77977 9.28332L7.2716 10.6569C7.31401 10.7754 7.23008 10.9016 7.10889 10.9016ZM6.96203 10.237V10.5252H6.05838V10.237H6.96203Z" fill="#FFD147"/>
<path d="M8.35126 10.5288L8.71553 9.25223C8.73854 9.17157 8.80961 9.11627 8.89026 9.11627C9.01573 9.11627 9.1037 9.24544 9.06244 9.36908L8.61114 10.7215C8.57515 10.8293 8.47769 10.9016 8.36825 10.9016C8.32857 10.9016 8.29836 10.8645 8.3048 10.8236L8.35126 10.5288ZM7.84456 9.11627C7.92486 9.11627 7.99561 9.17136 8.01846 9.25169L8.38182 10.5288L8.42999 10.8227C8.43675 10.8639 8.40632 10.9016 8.36625 10.9016C8.256 10.9016 8.15786 10.8287 8.1218 10.72L7.67314 9.36748C7.63235 9.24452 7.71987 9.11627 7.84456 9.11627Z" fill="#FFD147"/>
<path d="M10.2258 9.42159L9.79962 10.7771C9.77627 10.8514 9.70984 10.9016 9.63493 10.9016C9.51413 10.9016 9.43039 10.7759 9.47246 10.6577L9.96217 9.28247C9.99774 9.18256 10.0891 9.11627 10.1913 9.11627C10.2278 9.11627 10.2562 9.14953 10.252 9.1874L10.2258 9.42159ZM10.7381 10.9016C10.6631 10.9016 10.5966 10.8513 10.5731 10.777L10.1459 9.42159L10.1172 9.18871C10.1125 9.15029 10.1412 9.11627 10.1783 9.11627C10.2811 9.11627 10.373 9.18286 10.409 9.28332L10.9008 10.6569C10.9433 10.7754 10.8593 10.9016 10.7381 10.9016ZM10.5913 10.237V10.5252H9.68762V10.237H10.5913Z" fill="#FFD147"/>
<ellipse cx="20.2396" cy="14.9193" rx="0.481682" ry="0.502625" fill="#FFD147"/>
<ellipse cx="11.577" cy="20.1922" rx="0.481682" ry="0.502625" fill="#FFD147"/>
</svg>
