<svg width="25" height="25" viewBox="0 0 25 25" fill="none" xmlns="http://www.w3.org/2000/svg">
<path d="M14.0623 14.6793C14.8134 14.6793 16.8792 13.9312 17.3017 12.2856M17.7243 14.6792C16.9987 14.8857 15.4707 14.8289 14.9073 13.1832M17.8651 12.136H16.0341M16.0341 12.136H14.2031M16.0341 12.136V10.7895" stroke="#FFD147" stroke-width="0.481254" stroke-linecap="round"/>
<path d="M5.74402 10.0443L7.7215 6.06976L9.54687 10.0443M8.63418 8.63401H6.62523" stroke="#FFD147" stroke-width="0.481254" stroke-linecap="round" stroke-linejoin="round"/>
<path d="M12.3996 4.3313C12.8974 4.3313 13.2395 4.4459 13.427 4.72956C13.5159 4.86409 13.5536 5.01423 13.5711 5.15442C13.588 5.28945 13.588 5.43386 13.588 5.56487V9.05112H13.1126V5.57336C13.1126 5.43221 13.1122 5.31856 13.0998 5.21875C13.0876 5.12119 13.0658 5.05721 13.0359 5.01193C12.9857 4.93596 12.8525 4.82812 12.3996 4.82812H3.84318C3.3903 4.82812 3.25707 4.93596 3.20686 5.01193C3.17693 5.05721 3.15519 5.12119 3.143 5.21876C3.13052 5.31856 3.13014 5.43221 3.13014 5.57336V6.31859C3.13014 6.45579 3.02373 6.567 2.89246 6.567C2.7612 6.567 2.65479 6.45579 2.65479 6.31859V5.56488C2.65478 5.43387 2.65477 5.28945 2.67164 5.15442C2.68916 5.01423 2.72683 4.86409 2.81574 4.72956C3.00321 4.4459 3.34534 4.3313 3.84318 4.3313H12.3996Z" fill="#700099"/>
<path d="M2.89246 10.0448C2.7612 10.0448 2.65479 10.156 2.65479 10.2932V10.8227C2.65479 11.3196 2.74788 11.6663 2.99189 11.861C3.1106 11.9557 3.24377 11.996 3.36658 12.0145C3.48316 12.0321 3.60716 12.0321 3.71585 12.0321L3.72434 12.0321C3.90631 12.0321 4.05695 12.091 4.15815 12.1814C4.25588 12.2687 4.31853 12.3942 4.31853 12.5616V15.013C4.31853 15.1144 4.37745 15.2056 4.46741 15.2434C4.55737 15.2813 4.66032 15.2582 4.72754 15.1852L7.41797 12.2608C7.55245 12.1146 7.73781 12.0321 7.9317 12.0321H10.7358V11.5352H7.9317C7.60837 11.5352 7.29933 11.6729 7.07532 11.9164L4.79389 14.3963V12.5616C4.79389 12.2488 4.67032 11.9853 4.46697 11.8037C4.26709 11.6252 4.00179 11.5352 3.72434 11.5352C3.60532 11.5352 3.51391 11.5348 3.43449 11.5228C3.35825 11.5113 3.31216 11.4915 3.28034 11.4661C3.22327 11.4205 3.13014 11.2868 3.13014 10.8227V10.2932C3.13014 10.156 3.02373 10.0448 2.89246 10.0448Z" fill="#700099"/>
<path d="M11.6855 8.80231C11.1876 8.80231 10.8455 8.91691 10.658 9.20057C10.5691 9.3351 10.5314 9.48524 10.5139 9.62542C10.4971 9.76045 10.4971 9.90487 10.4971 10.0359V15.1768C10.4971 15.3089 10.4971 15.4581 10.5137 15.6006C10.5307 15.7471 10.567 15.9045 10.6509 16.0477C10.832 16.3566 11.172 16.5031 11.6855 16.5031H16.1535C16.3473 16.5031 16.5326 16.5856 16.6671 16.7318L19.3575 19.6562C19.4247 19.7293 19.5277 19.7523 19.6176 19.7144C19.7076 19.6766 19.7665 19.5854 19.7665 19.484V17.0326C19.7665 16.8652 19.8292 16.7397 19.9269 16.6524C20.0281 16.562 20.1787 16.5031 20.3607 16.5031L20.3692 16.5031C20.4779 16.5031 20.6019 16.5031 20.7185 16.4855C20.8413 16.467 20.9744 16.4267 21.0932 16.332C21.3372 16.1373 21.4303 15.7906 21.4303 15.2937V14.2674C21.4303 14.1302 21.3238 14.019 21.1926 14.019C21.0613 14.019 20.9549 14.1302 20.9549 14.2674V15.2937C20.9549 15.7578 20.8618 15.8915 20.8047 15.9371C20.7729 15.9625 20.7268 15.9823 20.6506 15.9938C20.5711 16.0058 20.4797 16.0062 20.3607 16.0062C20.0833 16.0062 19.818 16.0962 19.6181 16.2747C19.4147 16.4563 19.2912 16.7198 19.2912 17.0326V18.8673L17.0097 16.3874C16.7857 16.144 16.4769 16.0062 16.1535 16.0062H11.6855C11.2482 16.0062 11.1128 15.8846 11.0562 15.7881C11.0213 15.7285 10.9982 15.6489 10.9855 15.5405C10.9727 15.4308 10.9724 15.3099 10.9724 15.1695V10.0444C10.9724 9.90322 10.9728 9.78957 10.9853 9.68976C10.9975 9.59219 11.0192 9.52822 11.0491 9.48293C11.0994 9.40696 11.2326 9.29913 11.6855 9.29913H20.2419C20.6947 9.29913 20.828 9.40696 20.8782 9.48293C20.9081 9.52822 20.9299 9.59219 20.9421 9.68976C20.9545 9.78957 20.9549 9.90322 20.9549 10.0444V10.2928C20.9549 10.43 21.0613 10.5412 21.1926 10.5412C21.3238 10.5412 21.4303 10.43 21.4303 10.2928V10.0359C21.4303 9.90488 21.4303 9.76046 21.4134 9.62542C21.3959 9.48524 21.3582 9.3351 21.2693 9.20057C21.0818 8.91691 20.7397 8.80231 20.2419 8.80231H11.6855Z" fill="#700099"/>
<ellipse cx="21.1922" cy="12.2801" rx="0.475736" ry="0.49722" fill="#FFD147"/>
<ellipse cx="2.89261" cy="8.30591" rx="0.475736" ry="0.49722" fill="#FFD147"/>
</svg>
