<svg width="25" height="25" viewBox="0 0 25 25" fill="none" xmlns="http://www.w3.org/2000/svg">
<path d="M9.51703 18.9395C8.29315 16.8791 6.73152 18.081 6.2215 18.9395C5.63305 19.93 6.00967 20.6957 7.98698 20.6957C9.96429 20.6957 10.1055 19.9302 9.51703 18.9395Z" fill="#FFD147"/>
<path d="M17.5384 18.9395C16.3145 16.8791 14.7529 18.081 14.2429 18.9395C13.6544 19.93 14.0311 20.6957 16.0084 20.6957C17.9857 20.6957 18.1269 19.9302 17.5384 18.9395Z" fill="#FFD147"/>
<path d="M19.639 14.0232L19.4077 14.0896L19.4077 14.0896L19.639 14.0232ZM17.971 14.0542L17.8186 14.2404L17.8186 14.2404L17.971 14.0542ZM17.5356 14.2587L17.2951 14.2533L17.2951 14.2533L17.5356 14.2587ZM19.1388 12.3771C19.0702 12.2633 18.9223 12.2267 18.8085 12.2953C18.6947 12.364 18.6581 12.5119 18.7268 12.6257L19.1388 12.3771ZM15.9448 9.16629C16.0424 9.25646 16.1947 9.25041 16.2848 9.15279C16.375 9.05516 16.369 8.90293 16.2713 8.81276L15.9448 9.16629ZM4.4379 14.0232L4.20662 13.9567L4.20662 13.9567L4.4379 14.0232ZM6.10591 14.0542L6.25831 14.2404L6.25831 14.2404L6.10591 14.0542ZM6.54126 14.2587L6.30069 14.2642L6.30069 14.2642L6.54126 14.2587ZM5.02754 13.0707C5.08334 12.9501 5.0308 12.807 4.91019 12.7512C4.78958 12.6954 4.64657 12.748 4.59077 12.8686L5.02754 13.0707ZM7.24495 9.38955C7.14263 9.47435 7.12841 9.62604 7.21321 9.72837C7.29801 9.83069 7.4497 9.84491 7.55203 9.76011L7.24495 9.38955ZM15.632 17.6521C15.632 17.785 15.7398 17.8927 15.8727 17.8927C16.0056 17.8927 16.1133 17.785 16.1133 17.6521H15.632ZM7.88824 17.6521C7.88824 17.785 7.99597 17.8927 8.12887 17.8927C8.26176 17.8927 8.36949 17.785 8.36949 17.6521H7.88824ZM6.2215 18.9395L6.01463 18.8166L6.01463 18.8166L6.2215 18.9395ZM9.51703 18.9395L9.72391 18.8166L9.72391 18.8166L9.51703 18.9395ZM14.2429 18.9395L14.036 18.8166L14.036 18.8166L14.2429 18.9395ZM17.5384 18.9395L17.7453 18.8166L17.7453 18.8166L17.5384 18.9395ZM19.4077 14.0896C19.4609 14.2748 19.4958 14.4449 19.4978 14.5728C19.5001 14.719 19.461 14.71 19.49 14.695C19.4984 14.6907 19.4867 14.7013 19.4311 14.6923C19.375 14.6832 19.2907 14.6565 19.1715 14.5977C18.933 14.4799 18.5938 14.2529 18.1234 13.868L17.8186 14.2404C18.2994 14.6339 18.6716 14.8876 18.9584 15.0292C19.102 15.1001 19.2338 15.1478 19.354 15.1673C19.4747 15.1869 19.5994 15.1803 19.7112 15.1225C19.9468 15.0005 19.9817 14.7396 19.979 14.5652C19.976 14.3725 19.9267 14.1532 19.8703 13.9567L19.4077 14.0896ZM17.2951 14.2533C17.2839 14.7467 17.2193 15.3781 17.0738 15.9957C16.9275 16.6165 16.704 17.2036 16.3867 17.6243L16.771 17.914C17.1454 17.4175 17.3888 16.7571 17.5422 16.106C17.6964 15.4515 17.7644 14.7864 17.7762 14.2642L17.2951 14.2533ZM15.4071 6.76535C15.4071 5.92072 15.221 5.04248 14.6969 4.35548C14.1659 3.65959 13.3128 3.1922 12.0498 3.13233L12.0271 3.61305C13.1723 3.66733 13.8832 4.08243 14.3143 4.64739C14.7521 5.22126 14.9259 5.98227 14.9259 6.76535H15.4071ZM12.0498 3.13233C12.0326 3.13152 12.0153 3.13077 11.9979 3.13011L11.9795 3.61101C11.9954 3.61162 12.0113 3.6123 12.0271 3.61305L12.0498 3.13233ZM18.7268 12.6257C19.076 13.2046 19.2337 13.4839 19.4077 14.0896L19.8703 13.9567C19.6789 13.2906 19.4958 12.9688 19.1388 12.3771L18.7268 12.6257ZM14.9259 6.76535C14.9259 7.34499 14.9819 7.77386 15.147 8.14999C15.3125 8.52692 15.5771 8.82663 15.9448 9.16629L16.2713 8.81276C15.9193 8.48761 15.7131 8.24206 15.5877 7.95652C15.462 7.67017 15.4071 7.31935 15.4071 6.76535H14.9259ZM18.1234 13.868C17.9563 13.7312 17.7459 13.7357 17.5906 13.8092C17.4358 13.8824 17.2999 14.0407 17.2951 14.2533L17.7762 14.2642C17.7762 14.2627 17.7763 14.2613 17.7786 14.2582C17.7815 14.2541 17.7874 14.2485 17.7964 14.2442C17.8053 14.24 17.8126 14.2394 17.8161 14.2396C17.8181 14.2398 17.818 14.24 17.8186 14.2404L18.1234 13.868ZM4.20662 13.9567C4.15018 14.1532 4.10093 14.3725 4.0979 14.5652C4.09516 14.7396 4.13013 15.0005 4.36572 15.1225C4.47747 15.1803 4.60224 15.1869 4.72285 15.1673C4.84306 15.1478 4.97493 15.1001 5.11845 15.0292C5.40532 14.8876 5.77754 14.6339 6.25831 14.2404L5.95352 13.868C5.48313 14.2529 5.14386 14.4799 4.90538 14.5977C4.78621 14.6565 4.70194 14.6832 4.64584 14.6923C4.59015 14.7013 4.57845 14.6907 4.58689 14.695C4.61585 14.71 4.5768 14.719 4.5791 14.5728C4.58111 14.4449 4.61597 14.2748 4.66917 14.0896L4.20662 13.9567ZM6.30069 14.2642C6.3125 14.7864 6.38045 15.4515 6.53467 16.106C6.68809 16.7571 6.93146 17.4175 7.3059 17.914L7.69015 17.6243C7.37293 17.2036 7.14939 16.6165 7.00309 15.9957C6.85759 15.3781 6.79298 14.7467 6.78182 14.2533L6.30069 14.2642ZM9.15102 6.76535C9.15102 5.98227 9.32481 5.22126 9.76264 4.64739C10.1937 4.08243 10.9046 3.66733 12.0498 3.61305L12.0271 3.13233C10.7641 3.1922 9.91095 3.65959 9.38003 4.35548C8.85589 5.04248 8.66977 5.92072 8.66977 6.76535H9.15102ZM12.0498 3.61305C12.0656 3.6123 12.0815 3.61162 12.0974 3.61101L12.079 3.13011C12.0616 3.13077 12.0443 3.13152 12.0271 3.13233L12.0498 3.61305ZM4.59077 12.8686C4.34414 13.4016 4.29533 13.648 4.20662 13.9567L4.66917 14.0896C4.76085 13.7705 4.79964 13.5632 5.02754 13.0707L4.59077 12.8686ZM8.66977 6.76535C8.66977 7.50724 8.58433 7.9158 8.38508 8.25255C8.1785 8.60168 7.8373 8.89868 7.24495 9.38955L7.55203 9.76011C8.12695 9.28368 8.5417 8.93292 8.79926 8.49762C9.06414 8.04995 9.15102 7.53742 9.15102 6.76535H8.66977ZM6.25831 14.2404C6.25888 14.24 6.25874 14.2398 6.26083 14.2396C6.26428 14.2394 6.27155 14.24 6.28051 14.2442C6.28947 14.2485 6.29542 14.2541 6.29833 14.2582C6.30056 14.2613 6.30066 14.2627 6.30069 14.2642L6.78182 14.2533C6.77702 14.0407 6.64112 13.8824 6.4863 13.8092C6.33099 13.7357 6.12063 13.7312 5.95352 13.868L6.25831 14.2404ZM16.1133 17.6521C16.1133 16.5962 16.0556 14.9203 15.5398 13.502C15.281 12.7905 14.9016 12.1283 14.3422 11.6429C13.7779 11.1533 13.0445 10.856 12.1064 10.856V11.3373C12.9336 11.3373 13.5538 11.596 14.0268 12.0064C14.5045 12.4209 14.846 13.0025 15.0875 13.6664C15.5721 14.999 15.632 16.6008 15.632 17.6521H16.1133ZM8.36949 17.6521C8.36949 16.6591 8.42352 15.0588 8.93044 13.7129C9.18289 13.0427 9.54248 12.45 10.0503 12.0257C10.5538 11.605 11.2177 11.3373 12.1064 11.3373V10.856C11.1119 10.856 10.337 11.159 9.74168 11.6564C9.15059 12.1503 8.7512 12.8234 8.48007 13.5433C7.93981 14.9776 7.88824 16.655 7.88824 17.6521H8.36949ZM13.887 19.5415C13.54 19.705 12.909 19.908 12.1725 19.9671C11.4369 20.0261 10.613 19.9404 9.86454 19.5463L9.64032 19.9721C10.4925 20.4208 11.4145 20.5107 12.2109 20.4468C13.0064 20.383 13.6937 20.1646 14.0921 19.9769L13.887 19.5415ZM6.42837 19.0624C6.66288 18.6677 7.13487 18.2083 7.65937 18.0785C7.91312 18.0157 8.17956 18.0293 8.44967 18.1647C8.72352 18.3019 9.02015 18.5742 9.31015 19.0624L9.72391 18.8166C9.40197 18.2746 9.04444 17.9245 8.66533 17.7344C8.28249 17.5425 7.89717 17.5239 7.54377 17.6113C6.85398 17.782 6.29015 18.3528 6.01463 18.8166L6.42837 19.0624ZM9.31015 19.0624C9.44989 19.2976 9.53615 19.5033 9.56759 19.6752C9.59831 19.8431 9.57473 19.964 9.5136 20.0562C9.45016 20.1519 9.32209 20.2534 9.07189 20.3307C8.82153 20.4082 8.46845 20.4551 7.98698 20.4551V20.9363C8.49416 20.9363 8.90022 20.8876 9.21408 20.7905C9.52808 20.6934 9.76928 20.5415 9.91475 20.3221C10.0625 20.0991 10.0875 19.8428 10.041 19.5886C9.99519 19.3382 9.87841 19.0767 9.72391 18.8166L9.31015 19.0624ZM7.98698 20.4551C7.50631 20.4551 7.13608 20.4083 6.86055 20.3293C6.58416 20.25 6.41851 20.1428 6.32548 20.0333C6.1608 19.8394 6.15041 19.5302 6.42838 19.0624L6.01463 18.8166C5.70414 19.3392 5.58783 19.9082 5.95868 20.3448C6.13341 20.5505 6.39588 20.6966 6.72784 20.7919C7.06065 20.8874 7.47899 20.9363 7.98698 20.9363V20.4551ZM14.4498 19.0624C14.6843 18.6677 15.1563 18.2083 15.6808 18.0785C15.9345 18.0157 16.2009 18.0293 16.4711 18.1647C16.7449 18.3019 17.0415 18.5742 17.3315 19.0624L17.7453 18.8166C17.4234 18.2746 17.0658 17.9245 16.6867 17.7344C16.3039 17.5425 15.9186 17.5239 15.5652 17.6113C14.8754 17.782 14.3115 18.3528 14.036 18.8166L14.4498 19.0624ZM17.3315 19.0624C17.4713 19.2976 17.5575 19.5033 17.589 19.6752C17.6197 19.8431 17.5961 19.964 17.535 20.0562C17.4716 20.1519 17.3435 20.2534 17.0933 20.3307C16.8429 20.4082 16.4898 20.4551 16.0084 20.4551V20.9363C16.5155 20.9363 16.9216 20.8876 17.2355 20.7905C17.5495 20.6934 17.7907 20.5415 17.9361 20.3221C18.0839 20.0991 18.1089 19.8428 18.0624 19.5886C18.0166 19.3382 17.8998 19.0767 17.7453 18.8166L17.3315 19.0624ZM16.0084 20.4551C15.5277 20.4551 15.1575 20.4083 14.8819 20.3293C14.6055 20.25 14.4399 20.1428 14.3469 20.0333C14.1822 19.8394 14.1718 19.5302 14.4498 19.0624L14.036 18.8166C13.7255 19.3392 13.6092 19.9082 13.9801 20.3448C14.1548 20.5505 14.4173 20.6966 14.7492 20.7919C15.082 20.8874 15.5004 20.9363 16.0084 20.9363V20.4551Z" fill="#700099"/>
<path d="M11.8274 7.24878L10.9409 7.69622C10.5033 7.91707 10.4083 8.5005 10.7533 8.84872L11.6358 9.73952C11.9247 10.0311 12.3983 10.0235 12.6776 9.72273L13.5075 8.82913C13.8291 8.48291 13.7368 7.92623 13.3208 7.70224L12.4949 7.25761C12.2872 7.14581 12.038 7.14251 11.8274 7.24878Z" fill="#FFD147" stroke="#FFD147" stroke-width="0.481254"/>
<path d="M11.5614 6.38562C11.2859 5.24722 9.68343 5.63087 9.95898 6.76937" stroke="#FFD147" stroke-width="0.481254" stroke-linecap="round"/>
<path d="M12.4216 6.33139C12.6972 5.19299 14.2996 5.57664 14.024 6.71514" stroke="#FFD147" stroke-width="0.481254" stroke-linecap="round"/>
<ellipse cx="17.7562" cy="10.6285" rx="0.471207" ry="0.468664" fill="#FFD147"/>
<ellipse cx="5.75111" cy="11.0971" rx="0.471207" ry="0.468664" fill="#FFD147"/>
</svg>
