<svg width="25" height="25" viewBox="0 0 25 25" fill="none" xmlns="http://www.w3.org/2000/svg">
<path fill-rule="evenodd" clip-rule="evenodd" d="M10.5932 16.7997C7.56481 16.9928 5.29724 17.7813 5.29724 18.7246C5.29724 19.8127 8.31395 20.6948 12.0352 20.6948C15.7565 20.6948 18.7732 19.8127 18.7732 18.7246C18.7732 17.7813 16.5056 16.9928 13.4771 16.7997C12.7201 17.7276 12.1197 18.3733 12.0351 18.4623C11.9506 18.3733 11.3501 17.7276 10.5932 16.7997Z" fill="#FFD147"/>
<path d="M12.0349 11.8862C13.1958 11.8862 14.1472 10.9666 14.1472 9.81981C14.1472 8.67299 13.1958 7.75342 12.0349 7.75342C10.874 7.75342 9.9227 8.67299 9.9227 9.81981C9.9227 10.9666 10.874 11.8862 12.0349 11.8862Z" fill="#FFD147" stroke="#700099" stroke-width="0.481254"/>
<path d="M12.3883 18.5747C12.1853 18.7803 11.8534 18.7803 11.6504 18.5747V18.5747C11.5042 18.4265 10.1163 16.9884 8.76097 15.1945C8.08351 14.2978 7.40509 13.3004 6.89378 12.3224C6.47816 11.5274 6.15058 10.7039 6.04825 9.93567C6.02295 9.74574 6.20662 9.60774 6.38524 9.67018C6.48564 9.70528 6.55552 9.79575 6.57082 9.90235C6.95424 12.5724 10.4878 16.5631 11.6569 17.8185C11.8433 18.0186 11.9696 18.1492 12.0135 18.1939L12.0194 18.1999L12.0255 18.1937C12.0695 18.1488 12.1957 18.0183 12.3818 17.8185C12.8645 17.3002 13.7501 16.3159 14.6506 15.1507C14.7348 15.0418 14.8873 15.0156 15.0014 15.0915C15.1286 15.1761 15.1579 15.3528 15.0641 15.4742C13.78 17.1359 12.5269 18.4343 12.3883 18.5747V18.5747Z" fill="#700099"/>
<path d="M7.41113 6.1071C7.52073 6.14541 7.64166 6.1065 7.71355 6.01424C8.71754 4.72566 10.2731 3.89857 12.0194 3.89857C15.0472 3.89857 17.5018 6.38514 17.5018 9.45247C17.5018 10.1006 17.2692 10.853 16.8998 11.6393C16.8426 11.7612 16.881 11.908 16.9923 11.982C17.1226 12.0687 17.2985 12.0215 17.3657 11.879C17.7548 11.0535 18.0239 10.2143 18.0239 9.45247C18.0239 6.09191 15.3349 3.3689 12.0194 3.3689C10.0982 3.3689 8.3873 4.28322 7.28812 5.7061C7.17987 5.84623 7.24521 6.04909 7.41113 6.1071Z" fill="#700099"/>
<ellipse cx="16.028" cy="13.4961" rx="0.499522" ry="0.487287" fill="#FFD147"/>
<ellipse cx="6.5453" cy="7.87294" rx="0.499522" ry="0.487287" fill="#FFD147"/>
</svg>
