<svg width="25" height="25" viewBox="0 0 25 25" fill="none" xmlns="http://www.w3.org/2000/svg">
<rect x="7.3446" y="13.0813" width="0.495075" height="4.20064" fill="#FFD147"/>
<rect x="11.7998" y="13.0813" width="0.495075" height="4.20064" fill="#FFD147"/>
<rect x="16.2548" y="13.0812" width="0.495075" height="4.20064" fill="#FFD147"/>
<path d="M11.0573 6.54047H10.8166V6.7811V12.6003C10.8166 12.999 11.1398 13.3222 11.5385 13.3222H12.5561C12.9548 13.3222 13.278 12.999 13.278 12.6003V6.7811V6.54047H13.0374H11.0573Z" fill="#FFD147" stroke="#700099" stroke-width="0.481254"/>
<path d="M15.5122 6.54056H15.2716V6.78119V12.6004C15.2716 12.9991 15.5948 13.3223 15.9935 13.3223H17.0111C17.4098 13.3223 17.733 12.9991 17.733 12.6004V6.78119V6.54056H17.4924H15.5122Z" fill="#FFD147" stroke="#700099" stroke-width="0.481254"/>
<path d="M6.60223 6.54047H6.36161V6.7811V12.6003C6.36161 12.999 6.6848 13.3222 7.08349 13.3222H8.10113C8.49981 13.3222 8.82301 12.999 8.82301 12.6003V6.7811V6.54047H8.58238H6.60223Z" fill="#FFD147" stroke="#700099" stroke-width="0.481254"/>
<path d="M5.11717 6.2561H18.9775C19.7976 6.2561 20.4625 6.96127 20.4625 7.83114V9.93118C20.4625 10.0762 20.3517 10.1937 20.215 10.1937C20.0783 10.1937 19.9675 10.0762 19.9675 9.93118V7.83114C19.9675 7.25123 19.5242 6.78111 18.9775 6.78111H5.11717C4.5704 6.78111 4.12715 7.25123 4.12715 7.83114V9.93118C4.12715 10.0762 4.01634 10.1937 3.87965 10.1937C3.74295 10.1937 3.63214 10.0762 3.63214 9.93118V7.83114C3.63214 6.96127 4.29701 6.2561 5.11717 6.2561Z" fill="#700099"/>
<path d="M20.215 13.8688C20.0783 13.8688 19.9675 13.9863 19.9675 14.1313V16.2313C19.9675 16.8112 19.5242 17.2813 18.9775 17.2813H5.11717C4.5704 17.2813 4.12715 16.8112 4.12715 16.2313V14.1313C4.12715 13.9863 4.01634 13.8688 3.87965 13.8688C3.74295 13.8688 3.63214 13.9863 3.63214 14.1313V16.2313C3.63214 17.1012 4.29701 17.8064 5.11717 17.8064H18.9775C19.7976 17.8064 20.4625 17.1012 20.4625 16.2313V14.1313C20.4625 13.9863 20.3517 13.8688 20.215 13.8688Z" fill="#700099"/>
<ellipse cx="20.2151" cy="12.0317" rx="0.495445" ry="0.525472" fill="#FFD147"/>
<ellipse cx="3.88009" cy="12.0317" rx="0.495445" ry="0.525472" fill="#FFD147"/>
</svg>
