<svg width="25" height="25" viewBox="0 0 25 25" fill="none" xmlns="http://www.w3.org/2000/svg">
<path d="M10.8179 17.6999L11.8035 18.1828C11.9386 18.2491 12.0977 18.2491 12.2329 18.1828L13.2184 17.6999L12.7383 20.5232H11.298L10.8179 17.6999Z" fill="#FFD147"/>
<path d="M12.4846 16.6894L12.2845 16.8202C12.1233 16.9256 11.9132 16.9256 11.752 16.8202L11.5519 16.6894C11.3971 16.5883 11.3158 16.4085 11.3434 16.2282L12.0183 9.93685L12.6931 16.2282C12.7207 16.4085 12.6394 16.5883 12.4846 16.6894Z" fill="#FFD147"/>
<path d="M12.0183 2.76189C12.0957 2.76189 12.1684 2.7985 12.2134 2.86022C12.6609 3.47299 13.0636 4.06639 13.4245 4.64075C13.5227 4.79704 13.4071 4.99671 13.2198 4.99671C13.1355 4.99671 13.0575 4.95367 13.0133 4.88339C12.7124 4.40488 12.3814 3.91186 12.0183 3.4041C10.6974 5.25087 9.80202 6.90255 9.23457 8.37063C9.1987 8.46344 9.1084 8.52538 9.00714 8.52538C8.84048 8.52538 8.72408 8.36379 8.78306 8.21102C9.39623 6.62277 10.3753 4.84287 11.8231 2.86022C11.8681 2.7985 11.9408 2.76189 12.0183 2.76189Z" fill="#700099"/>
<path d="M8.17854 11.8188C8.05114 11.8188 7.94562 11.9165 7.94186 12.0413C7.92239 12.6879 7.97583 13.286 8.08804 13.8373C8.61359 16.4188 10.4178 17.918 11.9296 18.5067C11.9866 18.5288 12.05 18.5288 12.1069 18.5067C13.6187 17.918 15.4229 16.4188 15.9485 13.8373C16.2456 12.3775 16.1306 10.5889 15.3409 8.44294C15.3071 8.35108 15.2177 8.29013 15.118 8.29013C14.9506 8.29013 14.8353 8.45528 14.8921 8.6097C15.6549 10.6866 15.7542 12.3871 15.4777 13.7452C14.9994 16.0949 13.3862 17.4705 12.0183 18.0339C10.6503 17.4705 9.03714 16.0949 8.55879 13.7452C8.4549 13.2349 8.40407 12.6762 8.42156 12.0674C8.42544 11.9324 8.31633 11.8188 8.17854 11.8188Z" fill="#700099"/>
<path d="M14.659 6.64341C14.659 6.90329 14.4441 7.11396 14.1789 7.11396C13.9138 7.11396 13.6989 6.90329 13.6989 6.64341C13.6989 6.38354 13.9138 6.17287 14.1789 6.17287C14.4441 6.17287 14.659 6.38354 14.659 6.64341Z" fill="#FFD147"/>
<path d="M8.89803 10.1725C8.89803 10.4324 8.68309 10.643 8.41795 10.643C8.15281 10.643 7.93787 10.4324 7.93787 10.1725C7.93787 9.91262 8.15281 9.70195 8.41795 9.70195C8.68309 9.70195 8.89803 9.91262 8.89803 10.1725Z" fill="#FFD147"/>
</svg>
