<svg width="25" height="25" viewBox="0 0 25 25" fill="none" xmlns="http://www.w3.org/2000/svg">
<path d="M14.8912 8.58154H11.0037V12.0337H14.8912V15.4859H11.0037" stroke="#700099" stroke-width="0.481254" stroke-linecap="round" stroke-linejoin="round"/>
<path d="M11.9106 4.3685C11.9908 4.32107 12.0895 4.32107 12.1697 4.3685L18.4535 8.08582C18.5337 8.13325 18.5831 8.2209 18.5831 8.31576V9.9089C18.5831 10.0555 18.4671 10.1744 18.324 10.1744C18.1808 10.1744 18.0648 10.0555 18.0648 9.9089V8.46906L12.0401 4.90505L6.01547 8.46906V9.9089C6.01547 10.0555 5.89945 10.1744 5.75633 10.1744C5.61321 10.1744 5.49719 10.0555 5.49719 9.9089V8.31576C5.49719 8.2209 5.54658 8.13325 5.62676 8.08582L11.9106 4.3685Z" fill="#700099"/>
<path d="M18.324 13.8917C18.1808 13.8917 18.0648 14.0106 18.0648 14.1573V15.5971L11.9106 19.2378C11.7866 19.3111 11.7442 19.4735 11.8157 19.6005C11.8873 19.7275 12.0458 19.771 12.1697 19.6976L18.4535 15.9803C18.5337 15.9329 18.5831 15.8452 18.5831 15.7504V14.1573C18.5831 14.0106 18.4671 13.8917 18.324 13.8917Z" fill="#700099"/>
<path d="M5.49719 14.1573C5.49719 14.0106 5.61321 13.8917 5.75633 13.8917C5.89945 13.8917 6.01547 14.0106 6.01547 14.1573V15.5971L7.45386 16.448C7.68902 16.5786 7.96026 16.7205 8.23504 16.8278C8.51415 16.9368 8.77707 17.0019 8.99765 16.9951C9.20847 16.9887 9.36704 16.9185 9.48215 16.7624C9.60645 16.5938 9.70789 16.2878 9.70789 15.7504V8.58129C9.70789 8.43464 9.82391 8.31576 9.96703 8.31576C10.1101 8.31576 10.2262 8.43464 10.2262 8.58129V15.7504C10.2262 16.3415 10.1171 16.7822 9.89568 17.0825C9.6651 17.3952 9.34287 17.5158 9.01317 17.5259C8.69323 17.5358 8.35591 17.4433 8.05051 17.324C7.74195 17.2036 7.44553 17.0475 7.20371 16.9131C7.2017 16.912 7.1997 16.9108 7.19772 16.9097L5.62676 15.9803C5.54658 15.9329 5.49719 15.8452 5.49719 15.7504V14.1573Z" fill="#700099"/>
<ellipse cx="5.8211" cy="12.034" rx="0.518735" ry="0.53151" fill="#FFD147"/>
<ellipse cx="18.2598" cy="12.0338" rx="0.518735" ry="0.53151" fill="#FFD147"/>
</svg>
