<svg width="25" height="25" viewBox="0 0 25 25" fill="none" xmlns="http://www.w3.org/2000/svg">
<path d="M9.71523 4.3313H14.3513C15.0978 4.3313 15.6569 5.0056 15.6569 5.77508V8.19554C15.6569 8.32062 15.5555 8.42201 15.4304 8.42201V8.42201C15.3053 8.42201 15.2039 8.32062 15.2039 8.19554V5.77508C15.2039 5.24349 14.8222 4.81256 14.3513 4.81256H9.71523C9.24435 4.81256 8.86262 5.24349 8.86262 5.77508V13.0081C8.86262 13.1332 8.76122 13.2346 8.63614 13.2346V13.2346C8.51106 13.2346 8.40967 13.1332 8.40967 13.0081V5.77508C8.40967 5.0056 8.96871 4.3313 9.71523 4.3313Z" fill="#700099"/>
<path d="M8.63614 16.6034C8.51106 16.6034 8.40967 16.7048 8.40967 16.8299V18.2879C8.40967 19.0573 8.96871 19.7316 9.71523 19.7316H14.3513C15.0978 19.7316 15.6569 19.0573 15.6569 18.2879V12.0173C15.6569 11.8922 15.5555 11.7908 15.4304 11.7908V11.7908C15.3053 11.7908 15.2039 11.8922 15.2039 12.0173V18.2879C15.2039 18.8194 14.8222 19.2504 14.3513 19.2504H9.71523C9.24435 19.2504 8.86262 18.8194 8.86262 18.2879V16.8299C8.86262 16.7048 8.76122 16.6034 8.63614 16.6034V16.6034Z" fill="#700099"/>
<ellipse cx="15.4308" cy="10.107" rx="0.453348" ry="0.481682" fill="#FFD147"/>
<ellipse cx="8.63645" cy="14.9196" rx="0.453348" ry="0.481682" fill="#FFD147"/>
<path d="M13.582 4.96115L13.8872 4.57203H13.3926H10.6746H10.18L10.4852 4.96115L10.907 5.49888C11.0438 5.67336 11.2533 5.77526 11.475 5.77526H12.5922C12.8139 5.77526 13.0234 5.67336 13.1602 5.49888L13.582 4.96115Z" fill="#FFD147" stroke="#700099" stroke-width="0.481254" stroke-linecap="round"/>
<path d="M9.76855 18.2879H11.3543" stroke="#FFD147" stroke-width="0.481254" stroke-linecap="round"/>
<path d="M12.2596 18.2879H12.8254" stroke="#FFD147" stroke-width="0.481254" stroke-linecap="round"/>
</svg>
