<svg width="25" height="25" viewBox="0 0 25 25" fill="none" xmlns="http://www.w3.org/2000/svg">
<path d="M18.9909 8.07398H19.2315V7.83336V7.22075C19.2315 6.55627 18.6929 6.01761 18.0284 6.01761H6.04271C5.37823 6.01761 4.83957 6.55628 4.83957 7.22075V7.83336V8.07398H5.0802H18.9909Z" fill="#FFD147" stroke="#700099" stroke-width="0.481254"/>
<path d="M6.64597 12.8843L7.67617 13.3448C7.766 13.385 7.81764 13.4854 7.80065 13.5869C7.77635 13.7319 7.62715 13.8118 7.50216 13.7466L6.48251 13.215C6.36777 13.1551 6.30412 13.0225 6.32626 12.8893C6.33339 12.8464 6.37303 12.8186 6.41318 12.8283L6.64597 12.8843ZM8.0029 12.3492C7.99057 12.4241 7.94164 12.4864 7.87432 12.5131L6.67702 12.9869L6.45702 13.0319C6.37943 13.0478 6.31069 12.9769 6.32384 12.8946C6.34075 12.7886 6.40784 12.6991 6.50162 12.6576L7.72484 12.115C7.87254 12.0495 8.03038 12.1825 8.0029 12.3492Z" fill="#FFD147"/>
<path d="M9.4811 13.1202L8.73981 13.1181L8.80773 12.71L9.49662 12.712C9.604 12.712 9.70232 12.6929 9.79159 12.6546C9.88214 12.615 9.95653 12.5562 10.0147 12.4783C10.0743 12.4003 10.1111 12.3012 10.1254 12.1809C10.1396 12.0797 10.1325 11.9909 10.104 11.9143C10.0756 11.8364 10.029 11.7755 9.96429 11.7318C9.89961 11.6866 9.81811 11.662 9.71979 11.6579L9.12792 11.6559L8.73872 14.0257C8.71916 14.1448 8.62139 14.2317 8.50704 14.2317C8.36107 14.2317 8.25038 14.0926 8.27536 13.9406L8.71847 11.2457L9.73337 11.2478C9.90802 11.2519 10.0639 11.2915 10.201 11.3667C10.3382 11.4406 10.443 11.5458 10.5154 11.6825C10.5891 11.8193 10.6183 11.984 10.6027 12.1768C10.5859 12.3914 10.5238 12.5692 10.4164 12.71C10.3104 12.8495 10.1752 12.9527 10.0109 13.0197C9.84657 13.0867 9.66998 13.1202 9.4811 13.1202Z" fill="#FFD147"/>
<path d="M12.7897 12.4926L12.7218 12.9007H11.2625L11.3304 12.4926H12.7897ZM11.3769 11.2457C11.5229 11.2457 11.6336 11.3848 11.6086 11.5368L11.1994 14.0257C11.1798 14.1448 11.082 14.2317 10.9677 14.2317C10.8217 14.2317 10.711 14.0926 10.736 13.9406L11.1452 11.4517C11.1648 11.3326 11.2626 11.2457 11.3769 11.2457ZM13.0792 11.2457C13.2239 11.2457 13.3337 11.3836 13.3089 11.5344L12.8989 14.0281C12.8795 14.1458 12.7829 14.2317 12.6699 14.2317C12.5257 14.2317 12.4163 14.0944 12.4409 13.9442L12.8494 11.4501C12.8687 11.332 12.9657 11.2457 13.0792 11.2457Z" fill="#FFD147"/>
<path d="M14.6779 13.1202L13.9366 13.1181L14.0045 12.71L14.6934 12.712C14.8008 12.712 14.8991 12.6929 14.9884 12.6546C15.0789 12.615 15.1533 12.5562 15.2115 12.4783C15.271 12.4003 15.3079 12.3012 15.3221 12.1809C15.3364 12.0797 15.3292 11.9909 15.3008 11.9143C15.2723 11.8364 15.2257 11.7755 15.1611 11.7318C15.0964 11.6866 15.0149 11.662 14.9166 11.6579L14.3247 11.6559L13.9355 14.0257C13.9159 14.1448 13.8182 14.2317 13.7038 14.2317C13.5578 14.2317 13.4471 14.0926 13.4721 13.9406L13.9152 11.2457L14.9301 11.2478C15.1048 11.2519 15.2607 11.2915 15.3978 11.3667C15.5349 11.4406 15.6397 11.5458 15.7122 11.6825C15.7859 11.8193 15.7995 12.1768 15.7995 12.1768C15.7995 12.1768 15.7206 12.5692 15.6132 12.71C15.5071 12.8495 15.3719 12.9527 15.2076 13.0197C15.0433 13.0867 14.8667 13.1202 14.6779 13.1202Z" fill="#FFD147"/>
<path d="M17.3442 12.9663L16.2927 12.5083C16.203 12.4692 16.151 12.3694 16.1677 12.2684C16.1913 12.1257 16.3374 12.0462 16.4611 12.109L17.5862 12.6797C17.6645 12.7194 17.708 12.8095 17.6925 12.8997C17.6783 12.9823 17.6009 13.035 17.5239 13.0144L17.3442 12.9663ZM15.9618 13.5195C15.9743 13.445 16.0233 13.3831 16.0906 13.357L17.3131 12.8843L17.5815 12.8248C17.6433 12.8111 17.6986 12.868 17.6874 12.9337C17.6658 13.0601 17.5847 13.1661 17.4723 13.215L16.236 13.7527C16.0896 13.8163 15.9343 13.6843 15.9618 13.5195Z" fill="#FFD147"/>
<ellipse cx="6.69481" cy="7.04625" rx="0.372915" ry="0.394104" fill="#700099"/>
<ellipse cx="8.18517" cy="7.04625" rx="0.372915" ry="0.394104" fill="#700099"/>
<ellipse cx="9.67565" cy="7.04625" rx="0.372915" ry="0.394104" fill="#700099"/>
<path d="M4.58313 7.83331H19.4867V8.88334C19.4867 9.02831 19.3755 9.14584 19.2383 9.14584C19.1011 9.14584 18.9899 9.02831 18.9899 8.88334V8.35832H5.07991V11.2459C5.07991 11.3909 4.96871 11.5084 4.83152 11.5084C4.69434 11.5084 4.58313 11.3909 4.58313 11.2459V7.83331Z" fill="#700099"/>
<path d="M4.83152 15.1835C4.69434 15.1835 4.58313 15.301 4.58313 15.446V16.2335C4.58313 17.1034 5.25039 17.8085 6.07349 17.8085H17.9963C18.8194 17.8085 19.4867 17.1034 19.4867 16.2335V13.0834C19.4867 12.9384 19.3755 12.8209 19.2383 12.8209C19.1011 12.8209 18.9899 12.9384 18.9899 13.0834V16.2335C18.9899 16.8134 18.5451 17.2835 17.9963 17.2835H6.07349C5.52475 17.2835 5.07991 16.8134 5.07991 16.2335V15.446C5.07991 15.301 4.96871 15.1835 4.83152 15.1835Z" fill="#700099"/>
<ellipse cx="19.2388" cy="10.9837" rx="0.497221" ry="0.525472" fill="#FFD147"/>
<ellipse cx="4.83194" cy="13.3463" rx="0.497221" ry="0.525472" fill="#FFD147"/>
</svg>
