<svg width="25" height="25" viewBox="0 0 25 25" fill="none" xmlns="http://www.w3.org/2000/svg">
<path d="M9.70599 15.5703L9.61984 15.2197L9.61984 15.2197L9.70599 15.5703ZM9.58929 15.961L9.77386 15.6509L9.77386 15.6509L9.58929 15.961ZM9.95395 16.2309C10.1523 16.2509 10.3293 16.1064 10.3493 15.9081C10.3694 15.7098 10.2249 15.5327 10.0265 15.5127L9.95395 16.2309ZM9.91974 15.7826L10.2469 15.6302L10.2469 15.6302L9.91974 15.7826ZM10.1203 15.7817L10.1005 16.1421L10.1005 16.1421L10.1203 15.7817ZM10.5892 15.8245L10.6377 15.4668L10.6377 15.4668L10.5892 15.8245ZM10.7047 15.8392L10.6981 15.4783L10.6981 15.4783L10.7047 15.8392ZM10.2533 15.8077L10.3611 15.4633L10.3611 15.4633L10.2533 15.8077ZM10.1691 15.7868L10.1416 16.1467L10.1416 16.1467L10.1691 15.7868ZM9.95469 15.8233L9.87041 15.4723L9.87041 15.4723L9.95469 15.8233ZM9.85931 15.8449L9.85063 15.484L9.85063 15.484L9.85931 15.8449ZM10.3969 15.8475L10.4153 15.4871L10.4153 15.4871L10.3969 15.8475ZM10.9428 15.8664L10.9412 15.5055L10.9412 15.5055L10.9428 15.8664ZM11.2159 15.8221L11.0694 15.4922L11.0694 15.4922L11.2159 15.8221ZM11.511 15.6401L11.2848 15.3588L11.2848 15.3588L11.511 15.6401ZM11.6271 15.1719L11.2722 15.1058L11.2722 15.1058L11.6271 15.1719ZM11.4861 15.0043L11.5233 15.3633L11.5233 15.3633L11.4861 15.0043ZM11.3027 15.0872L11.5128 15.3807L11.5128 15.3807L11.3027 15.0872ZM11.1822 15.1833L10.9821 14.8829L11.1822 15.1833ZM10.9935 15.3084L11.1616 15.6278L11.1616 15.6278L10.9935 15.3084ZM10.8824 15.3839L11.098 15.6734L11.098 15.6734L10.8824 15.3839ZM10.8119 15.4378L11.1049 15.6486L11.1049 15.6486L10.8119 15.4378ZM10.4656 15.2997C10.3163 15.4317 10.3023 15.6598 10.4343 15.8092C10.5663 15.9585 10.7945 15.9725 10.9438 15.8405L10.4656 15.2997ZM11.1757 14.0848C11.1025 14.2081 10.8942 14.4525 10.5958 14.6938C10.3 14.9329 9.95388 15.1376 9.61984 15.2197L9.79215 15.9208C10.2675 15.8039 10.7089 15.5306 11.0497 15.2551C11.3878 14.9817 11.6648 14.6751 11.7964 14.4533L11.1757 14.0848ZM9.40472 16.2712C9.69059 16.4413 10.0427 16.585 10.4899 16.578C10.9324 16.5711 11.4295 16.4174 12.0119 16.0642L11.6376 15.447C11.1293 15.7552 10.757 15.8519 10.4786 15.8562C10.2049 15.8605 9.98455 15.7762 9.77386 15.6509L9.40472 16.2712ZM9.61984 15.2197C9.40608 15.2723 9.23188 15.4281 9.16418 15.6295C9.12937 15.7331 9.12098 15.8564 9.16335 15.9797C9.20677 16.1061 9.2944 16.2056 9.40472 16.2712L9.77386 15.6509C9.7956 15.6638 9.82856 15.6942 9.84605 15.7451C9.86249 15.7929 9.85689 15.8344 9.84843 15.8595C9.83343 15.9042 9.80615 15.9173 9.79215 15.9208L9.61984 15.2197ZM10.0265 15.5127C10.1188 15.522 10.1785 15.5657 10.2014 15.5847C10.2268 15.6057 10.2409 15.6246 10.245 15.6302L9.66166 16.0555C9.67704 16.0766 9.70314 16.1093 9.74095 16.1406C9.7763 16.1699 9.84875 16.2203 9.95395 16.2309L10.0265 15.5127ZM10.245 15.6302C10.2488 15.6355 10.251 15.6391 10.2517 15.6402L9.63285 16.0119C9.64047 16.0246 9.65008 16.0396 9.66166 16.0555L10.245 15.6302ZM10.2517 15.6402C10.2526 15.6417 10.2525 15.6416 10.2513 15.6393C10.2502 15.6371 10.2489 15.6345 10.2469 15.6302L9.59254 15.935C9.59816 15.947 9.61276 15.9784 9.63285 16.0119L10.2517 15.6402ZM10.2469 15.6302C10.2637 15.6663 10.2963 15.7523 10.2712 15.8616C10.2425 15.9863 10.1585 16.0613 10.0917 16.0974C10.0342 16.1284 9.98296 16.1356 9.96297 16.1379C9.93872 16.1406 9.91961 16.1402 9.91059 16.1399C9.89396 16.1392 9.87978 16.1372 9.88553 16.1379C9.88583 16.1379 9.88726 16.1381 9.88883 16.1383C9.89046 16.1385 9.89319 16.1388 9.8965 16.1392C9.90115 16.1396 9.91618 16.1411 9.93514 16.1411V15.4193C9.96177 15.4193 9.98657 15.423 9.97499 15.4216C9.97465 15.4215 9.97015 15.421 9.96507 15.4204C9.95998 15.4199 9.95039 15.419 9.93851 15.4185C9.9277 15.4181 9.90693 15.4177 9.88123 15.4206C9.85979 15.4231 9.80728 15.4306 9.74885 15.4621C9.68119 15.4986 9.59649 15.5743 9.56763 15.7C9.54231 15.8103 9.57506 15.8974 9.59254 15.935L10.2469 15.6302ZM9.93514 16.1411C10.0115 16.1411 10.0521 16.1394 10.1005 16.1421L10.1401 15.4213C10.0653 15.4172 9.98203 15.4193 9.93514 15.4193V16.1411ZM10.1005 16.1421C10.2491 16.1503 10.3984 16.1629 10.5406 16.1822L10.6377 15.4668C10.4713 15.4443 10.302 15.4302 10.1401 15.4213L10.1005 16.1421ZM10.5406 16.1822C10.5989 16.1901 10.6499 16.1885 10.6816 16.1871C10.7232 16.1851 10.726 16.1842 10.7408 16.1842V15.4624C10.7189 15.4624 10.6991 15.4632 10.684 15.464C10.6766 15.4644 10.6691 15.4648 10.6634 15.4651C10.6573 15.4655 10.6525 15.4657 10.6481 15.4659C10.6296 15.4668 10.6304 15.4659 10.6377 15.4668L10.5406 16.1822ZM10.7408 16.1842C10.74 16.1842 10.7368 16.1842 10.7319 16.184C10.7277 16.1838 10.7177 16.1832 10.7045 16.1813C10.6958 16.1801 10.6631 16.1755 10.6235 16.1595C10.6037 16.1515 10.5646 16.1338 10.524 16.0989C10.4814 16.0623 10.4216 15.9925 10.4037 15.8855C10.3677 15.6715 10.5248 15.5521 10.5328 15.5456C10.5677 15.5175 10.5995 15.5032 10.608 15.4993C10.6305 15.4891 10.6479 15.4844 10.6495 15.484C10.6545 15.4825 10.6575 15.4819 10.6579 15.4818C10.6586 15.4816 10.659 15.4815 10.6592 15.4815C10.6593 15.4815 10.6609 15.4812 10.6642 15.4807C10.6659 15.4805 10.6691 15.4801 10.6735 15.4797C10.677 15.4793 10.6861 15.4785 10.6981 15.4783L10.7113 16.2C10.7478 16.1994 10.7817 16.1929 10.7888 16.1917C10.8038 16.1889 10.825 16.1845 10.8469 16.1783C10.8553 16.1759 10.8786 16.1692 10.9052 16.1572C10.9157 16.1524 10.949 16.1372 10.985 16.1083C10.9941 16.101 11.1517 15.9807 11.1156 15.766C11.0976 15.6587 11.0376 15.5885 10.9946 15.5516C10.9536 15.5163 10.914 15.4983 10.8934 15.49C10.8524 15.4734 10.8174 15.4683 10.8058 15.4666C10.7771 15.4625 10.7521 15.4624 10.7408 15.4624V16.1842ZM10.6981 15.4783C10.5183 15.4816 10.4339 15.4861 10.3611 15.4633L10.1454 16.1522C10.3593 16.2192 10.5953 16.2022 10.7113 16.2L10.6981 15.4783ZM10.3611 15.4633C10.3585 15.4625 10.279 15.4332 10.1967 15.4269L10.1416 16.1467C10.1249 16.1454 10.1143 16.1423 10.1147 16.1424C10.1152 16.1426 10.117 16.1431 10.1225 16.1449C10.1254 16.1458 10.1279 16.1466 10.1321 16.1479C10.1358 16.1491 10.1405 16.1506 10.1454 16.1522L10.3611 15.4633ZM10.1967 15.4269C10.1116 15.4204 10.0349 15.4338 9.98658 15.444C9.94681 15.4524 9.87998 15.47 9.87041 15.4723L10.039 16.1743C10.0588 16.1695 10.0816 16.1635 10.0958 16.1599C10.1125 16.1556 10.125 16.1526 10.1359 16.1503C10.1467 16.148 10.1525 16.1472 10.1548 16.147C10.1572 16.1467 10.1521 16.1475 10.1416 16.1467L10.1967 15.4269ZM9.87041 15.4723L9.86993 15.4724L10.0146 16.1796C10.0212 16.1783 10.0299 16.1765 10.039 16.1743L9.87041 15.4723ZM9.86993 15.4724C9.84786 15.4769 9.84214 15.4774 9.80632 15.4844C9.80489 15.4847 9.77161 15.4907 9.74189 15.5004C9.73576 15.5024 9.72482 15.5062 9.71163 15.5118C9.70292 15.5156 9.67197 15.5288 9.63769 15.5543C9.62086 15.5668 9.58614 15.5946 9.55471 15.6406C9.52163 15.689 9.47843 15.7795 9.49553 15.8965C9.51253 16.0129 9.57907 16.0866 9.62294 16.1228C9.66505 16.1576 9.7052 16.1745 9.72452 16.1819C9.76383 16.1969 9.79672 16.2013 9.80615 16.2025C9.82028 16.2044 9.83179 16.2051 9.83831 16.2054C9.8515 16.206 9.86243 16.2058 9.868 16.2057L9.85063 15.484C9.85258 15.484 9.86068 15.4838 9.87176 15.4843C9.87724 15.4845 9.88788 15.4852 9.90132 15.4869C9.91007 15.4881 9.94244 15.4924 9.9814 15.5073C10.0005 15.5145 10.0406 15.5314 10.0826 15.5661C10.1264 15.6023 10.1928 15.6759 10.2098 15.7922C10.2269 15.9091 10.1837 15.9995 10.1507 16.0478C10.1194 16.0937 10.0847 16.1214 10.0681 16.1338C10.0341 16.1591 10.0035 16.1721 9.9954 16.1756C9.98279 16.181 9.97257 16.1845 9.96728 16.1862C9.94434 16.1938 9.92635 16.1965 9.94445 16.1929C9.94767 16.1923 9.99793 16.183 10.0146 16.1796L9.86993 15.4724ZM9.868 16.2057C9.8989 16.2049 9.92951 16.2043 9.95994 16.2037L9.94671 15.482C9.91455 15.4825 9.8825 15.4833 9.85063 15.484L9.868 16.2057ZM9.95994 16.2037C10.1042 16.2011 10.2419 16.2011 10.3786 16.208L10.4153 15.4871C10.2548 15.4789 10.0983 15.4792 9.94671 15.482L9.95994 16.2037ZM10.3786 16.208C10.5566 16.2171 10.7497 16.2282 10.9445 16.2273L10.9412 15.5055C10.7711 15.5062 10.6014 15.4966 10.4153 15.4871L10.3786 16.208ZM10.9445 16.2273C11.0437 16.2269 11.202 16.2232 11.3625 16.152L11.0694 15.4922C11.0563 15.4981 11.0293 15.5051 10.9412 15.5055L10.9445 16.2273ZM11.3625 16.152C11.5027 16.0897 11.6234 16.0128 11.7371 15.9214L11.2848 15.3588C11.2137 15.416 11.1458 15.4583 11.0694 15.4922L11.3625 16.152ZM11.7371 15.9214C11.9206 15.7739 11.9606 15.5795 11.9715 15.4544C11.9765 15.3981 11.9767 15.336 11.9774 15.3053C11.9784 15.2655 11.9801 15.248 11.9819 15.238L11.2722 15.1058C11.2591 15.1766 11.2568 15.2434 11.2558 15.2883C11.2545 15.3423 11.2547 15.3655 11.2524 15.3915C11.2505 15.4133 11.2483 15.4124 11.2527 15.4017C11.259 15.3866 11.2708 15.3701 11.2848 15.3588L11.7371 15.9214ZM11.9819 15.238C11.989 15.1999 12.0093 15.1041 12.0093 15.0097H11.2875C11.2875 15.0113 11.2872 15.0194 11.2844 15.0376C11.2815 15.057 11.2779 15.0754 11.2722 15.1058L11.9819 15.238ZM12.0093 15.0097C12.0093 14.8087 11.8633 14.7098 11.8076 14.6811C11.7503 14.6516 11.6978 14.6433 11.6778 14.6404C11.6305 14.6337 11.5855 14.6349 11.562 14.6358C11.5335 14.637 11.5063 14.6393 11.4867 14.6413C11.4728 14.6426 11.4438 14.6458 11.4489 14.6453L11.5233 15.3633C11.5459 15.361 11.5687 15.358 11.5912 15.3571C11.6052 15.3565 11.596 15.358 11.5753 15.355C11.5686 15.3541 11.527 15.3485 11.4773 15.323C11.4292 15.2982 11.2875 15.2044 11.2875 15.0097H12.0093ZM11.4489 14.6453C11.2854 14.6622 11.1511 14.7519 11.0926 14.7937L11.5128 15.3807C11.5197 15.3758 11.5264 15.3713 11.5327 15.3674C11.5391 15.3635 11.5441 15.3608 11.5476 15.3591C11.5513 15.3573 11.5516 15.3574 11.5488 15.3584C11.5461 15.3592 11.5373 15.3619 11.5233 15.3633L11.4489 14.6453ZM11.0926 14.7937C11.0562 14.8198 11.0235 14.8485 11.0084 14.8614C10.999 14.8694 10.9932 14.8743 10.9884 14.8781C10.9838 14.8817 10.982 14.8829 10.9821 14.8829L11.3822 15.4837C11.4239 15.456 11.4584 15.4264 11.4775 15.4101C11.5014 15.3896 11.5074 15.3846 11.5128 15.3807L11.0926 14.7937ZM10.9821 14.8829C10.8779 14.9523 10.8728 14.9641 10.8254 14.989L11.1616 15.6278C11.2485 15.5821 11.3602 15.4984 11.3822 15.4837L10.9821 14.8829ZM10.8254 14.989C10.7541 15.0266 10.6914 15.0761 10.6668 15.0944L11.098 15.6734C11.1457 15.6378 11.1529 15.6324 11.1616 15.6278L10.8254 14.989ZM10.6668 15.0944C10.6726 15.0901 10.6759 15.0882 10.6691 15.0926C10.6656 15.0948 10.6535 15.1025 10.6424 15.1101C10.6307 15.118 10.6127 15.1307 10.5934 15.1471C10.575 15.1626 10.5462 15.1891 10.519 15.2269L11.1049 15.6486C11.0945 15.6631 11.0846 15.674 11.0774 15.6815C11.07 15.6891 11.0637 15.6947 11.0595 15.6982C11.0553 15.7019 11.052 15.7043 11.0504 15.7055C11.0487 15.7068 11.0478 15.7074 11.0482 15.7071C11.0487 15.7068 11.0498 15.7061 11.052 15.7046C11.0531 15.7039 11.0544 15.7031 11.0559 15.7021C11.0573 15.7012 11.0593 15.6999 11.0611 15.6987C11.0648 15.6963 11.0702 15.6928 11.0759 15.689C11.0816 15.6851 11.0894 15.6798 11.098 15.6734L10.6668 15.0944ZM10.519 15.2269C10.5103 15.239 10.4989 15.2551 10.4931 15.2633C10.4857 15.2737 10.4802 15.2812 10.4754 15.2875C10.4657 15.3002 10.463 15.3019 10.4656 15.2997L10.9438 15.8405C11.0254 15.7683 11.0873 15.6731 11.1049 15.6486L10.519 15.2269Z" fill="#FFD147"/>
<path d="M18.8145 14.0424C18.2583 14.0269 17.5828 13.8406 17.2186 13.7737L16.6056 15.1365C18.0178 15.3743 18.7397 14.8352 19.0347 14.3563C19.1255 14.2088 18.9877 14.0472 18.8145 14.0424Z" fill="#FFD147" stroke="#FFD147" stroke-width="0.481254"/>
<path d="M16.8508 7.82728C15.8701 7.78599 14.5952 7.95108 15.3798 10.4288C15.7067 11.4611 16.4831 13.5754 16.9734 13.7736" stroke="#700099" stroke-width="0.481254" stroke-linecap="round"/>
<path d="M13.9088 3.86293C14.8335 4.68061 17.066 6.26926 17.0098 8.73272C17.0029 9.03564 17.0116 9.3409 17.1067 9.6286C17.3695 10.4238 17.7512 11.5404 17.0962 13.5263" stroke="#700099" stroke-width="0.481254" stroke-linecap="round"/>
<path d="M8.63751 8.69431C9.74079 7.99231 11.8983 7.30683 11.7022 10.1809C11.743 11.1307 11.6041 13.2284 10.7215 14.0213" stroke="#700099" stroke-width="0.481254" stroke-linecap="round"/>
<path d="M10.611 9.2533C10.6215 9.26275 10.6449 9.24284 10.6553 9.23925C10.6667 9.23531 10.7136 9.22424 10.7213 9.2375C10.7251 9.24397 10.7396 9.25908 10.7352 9.26735C10.7314 9.27463 10.7014 9.26604 10.697 9.26516" stroke="#FFD147" stroke-width="0.721881" stroke-linecap="round"/>
<path d="M15.9257 8.91537C15.9374 8.92835 15.9606 8.9756 15.9463 8.99175C15.941 8.9976 15.9504 8.97687 15.9563 8.97276C15.9632 8.96792 15.9692 8.96257 15.9729 8.95511" stroke="#FFD147" stroke-width="0.721881" stroke-linecap="round"/>
<path d="M10.3063 4.2467C9.20011 3.88814 7.55398 3.67062 6.26649 4.25341C5.61299 4.54922 5.05447 5.05081 4.71658 5.83166C4.67166 5.93549 4.63079 6.04388 4.59418 6.15699C4.544 6.31198 4.66327 6.46483 4.82464 6.46483C4.93677 6.46483 5.03413 6.38882 5.06999 6.28146C5.09928 6.19375 5.13132 6.11005 5.16587 6.0302C5.45038 5.37269 5.91396 4.95597 6.46695 4.70566C7.59245 4.19619 9.09689 4.3751 10.1565 4.71856C10.2854 4.76036 10.4235 4.68861 10.4648 4.55831C10.5062 4.428 10.4352 4.28849 10.3063 4.2467Z" fill="#700099"/>
<path d="M5.17336 10.1345C5.15015 10.018 5.04915 9.93363 4.9315 9.93363C4.77747 9.93363 4.66139 10.0752 4.69175 10.2278C4.81242 10.8343 4.9582 11.4626 5.12783 12.0695C5.4173 13.105 5.78072 14.0946 6.2165 14.8058C6.63897 15.4953 7.20027 16.0319 7.90092 15.9029C8.23989 15.8404 8.56573 15.6258 8.88029 15.2771C9.19551 14.9277 9.5142 14.4275 9.83855 13.7593C9.89819 13.6365 9.84798 13.488 9.72641 13.4278C9.60484 13.3675 9.45795 13.4182 9.39831 13.5411C9.08519 14.1861 8.79042 14.6412 8.51791 14.9433C8.24473 15.2461 8.00857 15.3793 7.81299 15.4153C7.44456 15.4832 7.04659 15.2192 6.6334 14.5449C6.23353 13.8923 5.8849 12.955 5.59973 11.9348C5.43424 11.3427 5.29163 10.7284 5.17336 10.1345Z" fill="#700099"/>
<path d="M17.0958 3.86304C17.0958 3.77429 17.0468 3.69249 16.9673 3.65493C16.3474 3.36226 16.3175 3.39736 15.3963 3.37112C15.1924 3.36532 14.9887 3.38708 14.8002 3.42518L14.1519 3.55622C13.9718 3.59263 13.7874 3.60328 13.6044 3.58786L12.4444 3.49018L12.4104 3.49209C11.5954 3.53785 10.4716 3.92109 9.61217 4.90354C8.74139 5.899 8.19231 7.45099 8.4341 9.73431C8.47055 10.0785 8.43112 10.4386 8.38279 10.8566C8.30643 11.5172 8.39724 12.3472 8.9176 13.0672C9.42278 13.7662 10.2807 14.2897 11.5911 14.4886C11.5927 14.5074 11.5942 14.5295 11.5954 14.5555C11.6021 14.6975 11.5989 14.8912 11.5931 15.1778L11.5921 15.2231C11.5866 15.4905 11.5798 15.8214 11.5796 16.2263C11.5279 16.7629 11.5132 17.3923 11.5715 18.0017C11.6299 18.612 11.7653 19.2459 12.0442 19.7459C12.3331 20.2637 12.804 20.6758 13.4966 20.6947C14.1406 20.7122 14.8654 20.3825 15.6815 19.7382C15.8689 19.5902 16.001 19.3637 16.0983 19.1406C16.2013 18.9046 16.2904 18.6133 16.364 18.2775C16.5114 17.6045 16.6054 16.7108 16.6054 15.6313V15.6107L16.6037 15.5902C16.5957 15.4922 16.6272 15.2915 16.8736 14.8037C17.1125 14.3306 17.5094 13.6677 18.1245 12.6731L18.1302 12.6639L18.1355 12.6543C18.9375 11.2204 19.8273 9.51619 19.7416 7.61293C19.7347 7.46002 19.7216 7.30786 19.7015 7.15726C19.6859 7.03974 19.5847 6.95486 19.4674 6.95486C19.3142 6.95486 19.1996 7.09653 19.2191 7.25004C19.4519 9.08699 18.5521 10.9026 17.7087 12.4105C16.4828 14.3926 16.0742 15.1358 16.1151 15.6313C16.1151 17.7373 15.7474 19.0573 15.3796 19.3477C12.2415 21.8252 11.8656 18.3154 12.0699 16.2507C12.0699 15.8399 12.0768 15.5056 12.0824 15.2329C12.1004 14.3543 12.1054 14.1155 11.8247 14.0209C9.20124 13.6895 8.73674 12.0652 8.86981 10.9141C8.917 10.5059 8.96492 10.0902 8.92165 9.68159C8.46076 5.32935 11.0316 4.06578 12.4376 3.98684L13.5637 4.08166C13.7925 4.10094 14.0229 4.08762 14.2481 4.04211L14.8964 3.91107C15.0547 3.87908 15.2211 3.86184 15.3825 3.86644C16.2368 3.89077 16.1854 3.83978 16.7258 4.08816C16.8925 4.1648 17.0958 4.04815 17.0958 3.86304Z" fill="#700099"/>
<ellipse cx="18.8124" cy="5.2261" rx="0.490765" ry="0.495952" fill="#FFD147"/>
<ellipse cx="4.83781" cy="8.19955" rx="0.490765" ry="0.495952" fill="#FFD147"/>
</svg>
