<svg width="25" height="25" viewBox="0 0 25 25" fill="none" xmlns="http://www.w3.org/2000/svg">
<path d="M16.2746 4.73667V7.70018H19.1622C19.8982 7.70018 20.4949 8.31256 20.4949 9.06796V10.2078C20.4949 10.3337 20.3954 10.4357 20.2727 10.4357C20.1501 10.4357 20.0506 10.3337 20.0506 10.2078V9.06796C20.0506 8.56436 19.6529 8.15611 19.1622 8.15611H16.2746V11.5755C16.2746 11.8273 16.0757 12.0315 15.8304 12.0315H8.27842V19.3263C8.27842 19.8299 8.6762 20.2381 9.16689 20.2381H14.9419C15.4326 20.2381 15.8304 19.8299 15.8304 19.3263V16.3628H12.2765C12.1539 16.3628 12.0544 16.2607 12.0544 16.1348C12.0544 16.0089 12.1539 15.9068 12.2765 15.9068H19.1622C19.6529 15.9068 20.0506 15.4986 20.0506 14.995V13.8552C20.0506 13.7293 20.1501 13.6272 20.2727 13.6272C20.3954 13.6272 20.4949 13.7293 20.4949 13.8552V14.995C20.4949 15.7504 19.8982 16.3628 19.1622 16.3628H16.2746V19.3263C16.2746 20.0817 15.678 20.694 14.9419 20.694H9.16689C8.43085 20.694 7.83418 20.0817 7.83418 19.3263L7.83418 16.3628H4.94666C4.21062 16.3628 3.61395 15.7504 3.61395 14.995V13.8552C3.61395 13.7293 3.7134 13.6272 3.83607 13.6272C3.95874 13.6272 4.05819 13.7293 4.05819 13.8552V14.995C4.05819 15.4986 4.45597 15.9068 4.94666 15.9068H7.83418V12.0315C7.83418 11.7797 8.03307 11.5755 8.27842 11.5755H15.8304V4.73667C15.8304 4.23307 15.4326 3.82482 14.9419 3.82482H9.16689C8.6762 3.82482 8.27842 4.23307 8.27842 4.73667V7.70018H11.8323C11.955 7.70018 12.0544 7.80225 12.0544 7.92815C12.0544 8.05405 11.955 8.15611 11.8323 8.15611H4.94666C4.45597 8.15611 4.05819 8.56436 4.05819 9.06796V10.2078C4.05819 10.3337 3.95874 10.4357 3.83607 10.4357C3.7134 10.4357 3.61395 10.3337 3.61395 10.2078V9.06796C3.61395 8.31256 4.21063 7.70018 4.94666 7.70018L7.83418 7.70018V4.73667C7.83418 3.98127 8.43085 3.3689 9.16689 3.3689H14.9419C15.678 3.3689 16.2746 3.98127 16.2746 4.73667Z" fill="#700099"/>
<ellipse cx="3.83641" cy="12.0318" rx="0.44463" ry="0.456331" fill="#FFD147"/>
<ellipse cx="20.2732" cy="12.0318" rx="0.44463" ry="0.456331" fill="#FFD147"/>
<ellipse cx="9.94439" cy="5.53457" rx="0.555293" ry="0.569906" fill="#FFD147"/>
<ellipse cx="14.1646" cy="18.5286" rx="0.555293" ry="0.569906" fill="#FFD147"/>
</svg>
