<svg width="25" height="25" viewBox="0 0 25 25" fill="none" xmlns="http://www.w3.org/2000/svg">
<path fill-rule="evenodd" clip-rule="evenodd" d="M2.87997 4.00922C3.0205 3.93055 3.19359 3.93073 3.33395 4.00969L10.9742 8.57508C11.2108 8.1889 11.6441 7.92968 12.1407 7.92968C12.6439 7.92968 13.0821 8.19584 13.3164 8.59055L20.9842 4.00969C21.1246 3.93073 21.2977 3.93055 21.4382 4.00922C21.5787 4.08789 21.6653 4.23344 21.6653 4.39097V14.9538C21.6653 15.111 21.5791 15.2563 21.439 15.3351L13.6995 19.9563C13.5886 20.0187 13.4573 20.0319 13.3378 19.9959C13.1093 20.4111 12.6596 20.6941 12.1407 20.6941C11.6253 20.6941 11.1781 20.4149 10.9483 20.0044C10.8377 20.0292 10.7197 20.0132 10.6187 19.9563L8.44393 18.7329C8.37393 18.6935 8.33078 18.6206 8.33078 18.5416C8.33078 18.3718 8.5184 18.2656 8.66878 18.3502L10.8461 19.575V9.01221L3.10654 4.39097V8.35493C3.10654 8.47753 3.00497 8.57692 2.87969 8.57692C2.7544 8.57692 2.65283 8.47753 2.65283 8.35493V4.39097C2.65283 4.23344 2.73943 4.08789 2.87997 4.00922ZM11.2894 19.6688C11.4141 20.0096 11.7481 20.2535 12.1407 20.2535C12.5656 20.2535 12.9221 19.9676 13.0184 19.5824L13.0202 19.575C13.0358 19.5102 13.0441 19.4427 13.0441 19.3733V9.25054C13.0441 9.17838 13.0352 9.10825 13.0184 9.04113C12.9219 8.65609 12.5655 8.3703 12.1407 8.3703C11.7529 8.3703 11.4223 8.60829 11.2941 8.94253C11.2854 8.96532 11.2776 8.98857 11.2708 9.01221C11.2489 9.08801 11.2373 9.16795 11.2373 9.25054V19.3733C11.2373 19.4427 11.2455 19.5102 11.2611 19.575C11.2688 19.607 11.2783 19.6383 11.2894 19.6688ZM21.2116 14.9538V4.39097L13.4721 9.01221V19.575L21.2116 14.9538Z" fill="#700099"/>
<path d="M2.87969 11.6613C2.7544 11.6613 2.65283 11.7607 2.65283 11.8833V14.9538C2.65283 15.111 2.73906 15.2563 2.87913 15.3351L5.24233 16.9319C5.39271 17.0165 5.58033 16.9103 5.58033 16.7405C5.58033 16.6615 5.53718 16.5885 5.46718 16.5492L3.10654 14.9538V11.8833C3.10654 11.7607 3.00497 11.6613 2.87969 11.6613Z" fill="#700099"/>
<ellipse cx="6.93094" cy="17.6713" rx="0.475736" ry="0.465519" fill="#FFD147"/>
<ellipse cx="2.89065" cy="10.1131" rx="0.475736" ry="0.465519" fill="#FFD147"/>
<path d="M19.7233 7.07575L15.3808 9.52904C14.9296 9.78395 14.5638 10.4107 14.5638 10.9289C14.5638 11.4471 14.9296 11.6606 15.3808 11.4057L19.7233 8.95241C20.1745 8.69751 20.5402 8.07076 20.5402 7.55254C20.5402 7.03431 20.1745 6.82085 19.7233 7.07575Z" fill="#FFD147" stroke="#700099" stroke-width="0.481254"/>
<path d="M13.0442 9.76392H11.2371" stroke="#FFD147" stroke-width="0.481254"/>
<path d="M11.2371 10.4615H13.0442" stroke="#FFD147" stroke-width="0.481254"/>
<path d="M13.0443 19.0664H11.2372" stroke="#FFD147" stroke-width="0.481254"/>
<path d="M11.2372 18.3687H13.0443" stroke="#FFD147" stroke-width="0.481254"/>
<path d="M12.1589 16.7409V11.857" stroke="#FFD147" stroke-width="0.481254" stroke-linecap="round"/>
<path d="M12.1591 8.01985L11.9618 8.15762C12.0001 8.21255 12.0597 8.249 12.126 8.2582C12.1924 8.2674 12.2596 8.24851 12.3114 8.20608L12.1591 8.01985ZM7.40587 3.36874L7.451 3.13239C7.38055 3.11894 7.30777 3.13761 7.25251 3.18332C7.19724 3.22904 7.16525 3.29702 7.16525 3.36874H7.40587ZM9.75762 5.75639C9.63529 5.70448 9.49403 5.76158 9.44213 5.88392C9.39022 6.00625 9.44731 6.14751 9.56965 6.19941L9.75762 5.75639ZM8.1997 5.25288C8.3005 5.33949 8.45242 5.32798 8.53902 5.22718C8.62563 5.12638 8.61412 4.97446 8.51332 4.88786L8.1997 5.25288ZM5.26691 3.67125L5.27784 3.43088C5.21379 3.42796 5.15122 3.45074 5.10403 3.49414L5.26691 3.67125ZM16.9123 3.48219H17.1529C17.1529 3.41046 17.1209 3.34248 17.0656 3.29677C17.0104 3.25105 16.9376 3.23238 16.8671 3.24583L16.9123 3.48219ZM14.8921 5.75102L15.0277 5.94983L15.0294 5.94868L14.8921 5.75102ZM18.9324 3.7847L19.105 3.6171C19.0523 3.56278 18.9771 3.53644 18.902 3.546L18.9324 3.7847ZM12.3997 8.01985C12.3997 7.07384 11.7516 5.96617 10.844 5.0564C9.92871 4.13889 8.69901 3.37067 7.451 3.13239L7.36075 3.6051C8.48933 3.82058 9.63622 4.52711 10.5033 5.3963C11.3782 6.27324 11.9184 7.26424 11.9184 8.01985H12.3997ZM7.16525 3.36874V4.34034H7.6465V3.36874H7.16525ZM12.3563 7.88208C11.8605 7.17201 10.8765 6.23113 9.75762 5.75639L9.56965 6.19941C10.5897 6.63221 11.507 7.50639 11.9618 8.15762L12.3563 7.88208ZM8.51332 4.88786C7.28912 3.83603 6.16948 3.47141 5.27784 3.43088L5.25598 3.91163C6.02796 3.94673 7.04731 4.26276 8.1997 5.25288L8.51332 4.88786ZM5.10403 3.49414L3.91573 4.58696L4.2415 4.94119L5.4298 3.84837L5.10403 3.49414ZM12.3997 8.01985C12.3997 7.26615 12.9379 6.30409 13.812 5.45574C14.678 4.61526 15.8256 3.93463 16.9574 3.71854L16.8671 3.24583C15.6223 3.48351 14.3933 4.2209 13.4768 5.1104C12.5685 5.99204 11.9184 7.07193 11.9184 8.01985H12.3997ZM16.6716 3.48219V4.38972H17.1529V3.48219H16.6716ZM12.3114 8.20608C12.7307 7.86302 13.2125 7.432 13.683 7.02487C14.1584 6.61357 14.6245 6.22481 15.0277 5.94982L14.7566 5.55221C14.328 5.84444 13.8434 6.24976 13.3682 6.66092C12.8881 7.07624 12.4192 7.49603 12.0067 7.83362L12.3114 8.20608ZM15.0294 5.94868C15.6782 5.4982 16.3816 5.05083 17.0669 4.69822C17.7555 4.34387 18.4096 4.09381 18.9627 4.0234L18.902 3.546C18.2669 3.62684 17.5543 3.90617 16.8467 4.27029C16.1357 4.63614 15.4132 5.0963 14.7549 5.55336L15.0294 5.94868ZM18.7597 3.95229L19.7103 4.93167L20.0557 4.59648L19.105 3.6171L18.7597 3.95229Z" fill="#700099"/>
</svg>
