<svg width="25" height="25" viewBox="0 0 25 25" fill="none" xmlns="http://www.w3.org/2000/svg">
<path d="M19.7608 13.6146H10.8847C10.2203 13.6146 9.68161 14.1533 9.68161 14.8177V19.7322C9.68161 20.3967 10.2203 20.9353 10.8847 20.9353H19.7608C20.4253 20.9353 20.9639 20.3967 20.9639 19.7322V14.8177C20.9639 14.1533 20.4253 13.6146 19.7608 13.6146Z" stroke="#FFD147" stroke-width="0.481254"/>
<path d="M12.8548 17.891C12.8548 17.8309 12.8456 17.7775 12.8271 17.7307C12.81 17.684 12.779 17.6412 12.7342 17.6025C12.6893 17.5638 12.626 17.5264 12.5443 17.4903C12.4639 17.4529 12.3611 17.4148 12.2358 17.3761C12.0987 17.3334 11.9721 17.2859 11.8561 17.2338C11.7414 17.1804 11.6412 17.119 11.5555 17.0495C11.4698 16.9787 11.4032 16.8979 11.3558 16.8071C11.3083 16.7149 11.2846 16.6087 11.2846 16.4885C11.2846 16.3696 11.309 16.2614 11.3578 16.1639C11.4079 16.0664 11.4784 15.9823 11.5694 15.9115C11.6616 15.8393 11.7704 15.7839 11.8957 15.7452C12.0209 15.7051 12.1593 15.6851 12.311 15.6851C12.5245 15.6851 12.7084 15.7251 12.8627 15.8053C13.0183 15.8854 13.1376 15.9929 13.2206 16.1279C13.2605 16.1917 13.291 16.2586 13.312 16.3287C13.3516 16.4605 13.237 16.5747 13.101 16.5747C12.965 16.5747 12.8634 16.456 12.8007 16.3338C12.7984 16.3292 12.796 16.3247 12.7935 16.3202C12.7539 16.2454 12.6933 16.1866 12.6115 16.1439C12.5311 16.1011 12.4289 16.0798 12.305 16.0798C12.1877 16.0798 12.0901 16.0978 12.0123 16.1339C11.9346 16.1699 11.8765 16.2187 11.8383 16.2801C11.8001 16.3416 11.781 16.411 11.781 16.4885C11.781 16.5433 11.7935 16.5934 11.8185 16.6388C11.8436 16.6829 11.8818 16.7243 11.9332 16.763C11.9847 16.8004 12.0493 16.8358 12.127 16.8692C12.2048 16.9026 12.2964 16.9346 12.4019 16.9654C12.5614 17.0134 12.7005 17.0669 12.8192 17.1256C12.9378 17.1831 13.0367 17.2485 13.1158 17.322C13.1949 17.3955 13.2543 17.479 13.2938 17.5725C13.3334 17.6646 13.3531 17.7695 13.3531 17.887C13.3531 18.0099 13.3287 18.1208 13.28 18.2196C13.2312 18.3171 13.1613 18.4006 13.0703 18.4701C12.9807 18.5382 12.8726 18.591 12.746 18.6284C12.6208 18.6644 12.481 18.6824 12.3268 18.6824C12.1883 18.6824 12.0519 18.6637 11.9174 18.6263C11.7843 18.5889 11.663 18.5322 11.5535 18.456C11.4441 18.3786 11.3571 18.2824 11.2925 18.1675C11.2651 18.1183 11.2435 18.0655 11.2278 18.0093C11.1903 17.8757 11.3078 17.7608 11.4449 17.7608C11.5807 17.7608 11.6806 17.8791 11.7394 18.0032C11.7724 18.07 11.8179 18.1248 11.8759 18.1675C11.9339 18.2089 12.0011 18.2397 12.0776 18.2597C12.1554 18.2797 12.2384 18.2897 12.3268 18.2897C12.4428 18.2897 12.5397 18.273 12.6175 18.2397C12.6966 18.2063 12.7559 18.1595 12.7955 18.0994C12.835 18.0393 12.8548 17.9698 12.8548 17.891Z" fill="#FFD147"/>
<path d="M15.8434 18.2537L16.4032 18.7039C16.5061 18.7866 16.5099 18.9436 16.4111 19.0314C16.3344 19.0996 16.2204 19.1022 16.1407 19.0375L15.5349 18.5462L15.8434 18.2537ZM16.6067 17.1036V17.2639C16.6067 17.4843 16.5784 17.682 16.5217 17.857C16.465 18.0319 16.3839 18.1809 16.2785 18.3038C16.173 18.4267 16.0471 18.5208 15.9007 18.5863C15.7544 18.6504 15.5922 18.6824 15.4143 18.6824C15.2376 18.6824 15.0761 18.6504 14.9297 18.5863C14.7847 18.5208 14.6588 18.4267 14.552 18.3038C14.4452 18.1809 14.3622 18.0319 14.3029 17.857C14.2448 17.682 14.2158 17.4843 14.2158 17.2639V17.1036C14.2158 16.8832 14.2448 16.6862 14.3029 16.5125C14.3609 16.3376 14.4426 16.1886 14.5481 16.0657C14.6549 15.9415 14.7808 15.8474 14.9258 15.7832C15.0721 15.7178 15.2336 15.6851 15.4103 15.6851C15.5883 15.6851 15.7504 15.7178 15.8968 15.7832C16.0444 15.8474 16.171 15.9415 16.2765 16.0657C16.382 16.1886 16.463 16.3376 16.5197 16.5125C16.5777 16.6862 16.6067 16.8832 16.6067 17.1036ZM16.1084 17.2639V17.0996C16.1084 16.9366 16.0926 16.7931 16.0609 16.6688C16.0306 16.5433 15.9851 16.4384 15.9245 16.3543C15.8651 16.2688 15.792 16.2047 15.705 16.1619C15.6193 16.1178 15.521 16.0958 15.4103 16.0958C15.3022 16.0958 15.2053 16.1178 15.1196 16.1619C15.0339 16.2047 14.9607 16.2688 14.9001 16.3543C14.8394 16.4384 14.7933 16.5433 14.7617 16.6688C14.73 16.7931 14.7142 16.9366 14.7142 17.0996V17.2639C14.7142 17.4269 14.73 17.5711 14.7617 17.6967C14.7933 17.8222 14.8394 17.9284 14.9001 18.0152C14.962 18.1007 15.0359 18.1655 15.1216 18.2096C15.2086 18.2523 15.3061 18.2737 15.4143 18.2737C15.525 18.2737 15.6232 18.2523 15.7089 18.2096C15.7946 18.1655 15.8671 18.1007 15.9264 18.0152C15.9858 17.9284 16.0306 17.8222 16.0609 17.6967C16.0926 17.5711 16.1084 17.4269 16.1084 17.2639Z" fill="#FFD147"/>
<path d="M19.2443 18.2437C19.353 18.2437 19.4411 18.3329 19.4411 18.443C19.4411 18.5531 19.353 18.6424 19.2443 18.6424H18.1339V18.2437H19.2443ZM17.8857 15.7251C18.0228 15.7251 18.1339 15.8377 18.1339 15.9766V18.2437V18.6424C17.8598 18.6424 17.6375 18.4172 17.6375 18.1395V15.9766C17.6375 15.8377 17.7486 15.7251 17.8857 15.7251Z" fill="#FFD147"/>
<path d="M5.48794 3.93897C6.52861 3.73558 7.93027 3.60896 9.47199 3.59769C9.59626 3.59678 9.69711 3.69893 9.69711 3.82484C9.69711 3.95074 9.59602 4.05271 9.47175 4.05364C6.3552 4.07678 3.86498 4.57787 3.86498 5.19263C3.86498 5.82214 6.47611 6.33246 9.69711 6.33246C12.9181 6.33246 15.5292 5.82214 15.5292 5.19263C15.5292 4.8066 14.5473 4.46538 13.045 4.25919C12.9323 4.24372 12.8472 4.14669 12.8472 4.03147C12.8472 3.8945 12.9654 3.78823 13.0994 3.80657C13.387 3.84594 13.657 3.89026 13.9063 3.93897C14.4481 4.04487 14.9152 4.17591 15.2577 4.33413C15.4275 4.41261 15.5914 4.50888 15.7194 4.63116C15.8285 4.73536 15.9405 4.88777 15.9711 5.08586C15.9878 5.11771 15.9972 5.15405 15.9972 5.19263V13.3994H15.5472V10.3178C15.4897 10.3487 15.4282 10.3778 15.3637 10.4055C15.0235 10.5515 14.5474 10.6779 13.9829 10.7822C12.8503 10.9915 11.3175 11.1197 9.69711 11.1197C9.31246 11.1197 8.93274 11.1125 8.56214 11.0987C8.44185 11.0942 8.34708 10.9938 8.34708 10.8718C8.34708 10.742 8.454 10.6384 8.58208 10.6432C8.94568 10.6567 9.31872 10.6638 9.69711 10.6638C11.2977 10.6638 12.8025 10.5369 13.9022 10.3337C14.4538 10.2317 14.8926 10.1125 15.1882 9.98569C15.337 9.92187 15.4368 9.86142 15.4958 9.80953C15.5353 9.77473 15.5452 9.75435 15.5472 9.74862V5.89107C15.457 5.95182 15.3583 6.0046 15.2577 6.05113C14.9152 6.20935 14.4481 6.34039 13.9063 6.44629C12.8152 6.65953 11.3272 6.78839 9.69711 6.78839C8.06697 6.78839 6.57905 6.65953 5.48794 6.44629C4.94609 6.34039 4.47898 6.20935 4.13657 6.05113C4.03588 6.0046 3.93727 5.95182 3.84698 5.89107V9.74862C3.84905 9.75434 3.85888 9.77473 3.89844 9.80953C3.95741 9.86142 4.05722 9.92187 4.20599 9.98569C4.41106 10.0737 4.685 10.158 5.0177 10.2354C5.12193 10.2596 5.19701 10.3528 5.19701 10.4612C5.19701 10.6057 5.06633 10.7143 4.92724 10.6821C4.57271 10.6001 4.2684 10.5076 4.03054 10.4055C3.96599 10.3778 3.90448 10.3487 3.84698 10.3178V14.3079C3.84905 14.3137 3.85888 14.334 3.89844 14.3688C3.95741 14.4207 4.05722 14.4812 4.20599 14.545C4.50163 14.6718 4.94041 14.791 5.49205 14.893C6.59173 15.0962 8.09652 15.2231 9.69711 15.2231V15.679C8.07671 15.679 6.54393 15.5508 5.4113 15.3415C4.84678 15.2372 4.3707 15.1108 4.03054 14.9648C3.96599 14.9372 3.90448 14.908 3.84698 14.8771V18.8672C3.84905 18.873 3.85888 18.8933 3.89844 18.9282C3.95741 18.98 4.05722 19.0405 4.20599 19.1043C4.50163 19.2311 4.94041 19.3503 5.49205 19.4523C6.59173 19.6555 8.09652 19.7824 9.69711 19.7824V20.2384C8.07671 20.2384 6.54393 20.1101 5.4113 19.9008C4.84678 19.7965 4.3707 19.6701 4.03054 19.5242C3.86141 19.4516 3.71307 19.3689 3.60338 19.2724C3.49527 19.1773 3.39697 19.0431 3.39697 18.8706V5.19263C3.39697 5.15405 3.40643 5.11771 3.42313 5.08586C3.45374 4.88777 3.56568 4.73536 3.67479 4.63116C3.80282 4.50888 3.96673 4.41261 4.13657 4.33413C4.47898 4.17591 4.94609 4.04487 5.48794 3.93897Z" fill="#700099"/>
<ellipse cx="11.2726" cy="3.82514" rx="0.450404" ry="0.456331" fill="#FFD147"/>
<ellipse cx="6.77255" cy="10.664" rx="0.450404" ry="0.456331" fill="#FFD147"/>
</svg>
