<svg width="25" height="25" viewBox="0 0 25 25" fill="none" xmlns="http://www.w3.org/2000/svg">
<path d="M13.4442 7.42044C13.5771 7.42044 13.6849 7.31271 13.6849 7.17981V6.25604C13.6849 6.12315 13.5771 6.01542 13.4442 6.01542H12.044H10.6437C10.5108 6.01542 10.4031 6.12315 10.4031 6.25604V7.17981C10.4031 7.31271 10.5108 7.42044 10.6437 7.42044H13.4442Z" fill="#FFD147" stroke="#700099" stroke-width="0.481254" stroke-linecap="round" stroke-linejoin="round"/>
<path d="M15.552 16.8829C15.552 16.75 15.4443 16.6423 15.3114 16.6423H14.3772C14.2443 16.6423 14.1366 16.75 14.1366 16.8829V17.8074C14.1366 17.9403 14.2443 18.048 14.3772 18.048H15.3114C15.4443 18.048 15.552 17.9403 15.552 17.8074V16.8829Z" fill="#FFD147" stroke="#700099" stroke-width="0.481254" stroke-linecap="round" stroke-linejoin="round"/>
<path d="M8.77692 16.6423C8.64402 16.6423 8.53629 16.75 8.53629 16.8829V17.8074C8.53629 17.9403 8.64402 18.048 8.77692 18.048H9.71109C9.84398 18.048 9.95172 17.9403 9.95172 17.8074V16.8829C9.95172 16.75 9.84398 16.6423 9.71109 16.6423H8.77692Z" fill="#FFD147" stroke="#700099" stroke-width="0.481254" stroke-linecap="round" stroke-linejoin="round"/>
<path d="M6.677 7.41086V16.6477" stroke="#FFD147" stroke-width="0.481254" stroke-linecap="round" stroke-linejoin="round"/>
<path d="M17.4106 7.4108V16.6476" stroke="#FFD147" stroke-width="0.481254" stroke-linecap="round" stroke-linejoin="round"/>
<path d="M5.977 7.17978H18.1106C18.8838 7.17978 19.5106 7.80006 19.5106 8.56522V10.4125C19.5106 10.54 19.4062 10.6434 19.2773 10.6434C19.1484 10.6434 19.0439 10.54 19.0439 10.4125V8.56522C19.0439 8.05512 18.6261 7.64159 18.1106 7.64159H5.977C5.46152 7.64159 5.04364 8.05512 5.04364 8.56522V10.4125C5.04364 10.54 4.93917 10.6434 4.8103 10.6434C4.68143 10.6434 4.57697 10.54 4.57697 10.4125V8.56522C4.57697 7.80006 5.20378 7.17978 5.977 7.17978Z" fill="#700099"/>
<path d="M19.2773 13.4143C19.1484 13.4143 19.0439 13.5176 19.0439 13.6452V15.4924C19.0439 16.0025 18.6261 16.4161 18.1106 16.4161H5.977C5.46152 16.4161 5.04364 16.0025 5.04364 15.4924V13.6452C5.04364 13.5176 4.93917 13.4143 4.8103 13.4143C4.68143 13.4143 4.57697 13.5176 4.57697 13.6452V15.4924C4.57697 16.2576 5.20378 16.8779 5.977 16.8779H18.1106C18.8838 16.8779 19.5106 16.2576 19.5106 15.4924V13.6452C19.5106 13.5176 19.4062 13.4143 19.2773 13.4143Z" fill="#700099"/>
<ellipse cx="19.2776" cy="12.0291" rx="0.467086" ry="0.462219" fill="#FFD147"/>
<ellipse cx="4.81053" cy="12.0291" rx="0.467086" ry="0.462219" fill="#FFD147"/>
</svg>
