<svg width="25" height="25" viewBox="0 0 25 25" fill="none" xmlns="http://www.w3.org/2000/svg">
<path d="M11.5785 12.9475V16.6223C11.5785 16.8545 11.3903 17.0428 11.158 17.0428C10.9258 17.0428 10.7375 16.8545 10.7375 16.6223V12.9475H11.5785ZM12.5081 12.9475C12.6907 12.9475 12.8386 13.0954 12.8386 13.278C12.8386 13.4605 12.6907 13.6085 12.5081 13.6085H9.82762C9.6451 13.6085 9.49713 13.4605 9.49713 13.278C9.49713 13.0954 9.6451 12.9475 9.82762 12.9475H12.5081Z" fill="#FFD147"/>
<path d="M16.1555 15.9711C16.1555 15.898 16.1442 15.8324 16.1217 15.7742C16.1011 15.7142 16.0617 15.6599 16.0036 15.6111C15.9455 15.5605 15.8639 15.5108 15.7589 15.462C15.6539 15.4133 15.5179 15.3627 15.3511 15.3101C15.1654 15.2501 14.9891 15.1826 14.8223 15.1076C14.6573 15.0326 14.511 14.9454 14.3835 14.8461C14.2578 14.7448 14.1585 14.6276 14.0853 14.4945C14.0141 14.3613 13.9784 14.2066 13.9784 14.0304C13.9784 13.8597 14.016 13.705 14.091 13.5663C14.166 13.4256 14.271 13.3056 14.406 13.2062C14.541 13.105 14.7004 13.0272 14.8841 12.9728C15.0698 12.9184 15.2732 12.8912 15.4945 12.8912C15.7964 12.8912 16.0599 12.9456 16.2849 13.0544C16.5099 13.1631 16.6843 13.3122 16.808 13.5016C16.8579 13.5768 16.8979 13.6562 16.928 13.74C17.0062 13.9578 16.8089 14.1513 16.5774 14.1513H16.486C16.305 14.1513 16.1711 13.994 16.0824 13.8363C16.0336 13.7444 15.9586 13.6722 15.8573 13.6197C15.758 13.5672 15.6323 13.541 15.4804 13.541C15.3342 13.541 15.2123 13.5635 15.1148 13.6085C15.0173 13.6516 14.9441 13.7107 14.8954 13.7857C14.8466 13.8588 14.8223 13.9413 14.8223 14.0332C14.8223 14.1026 14.8391 14.1654 14.8729 14.2216C14.9085 14.2779 14.961 14.3304 15.0304 14.3791C15.0998 14.4279 15.1851 14.4738 15.2864 14.517C15.3876 14.5601 15.5048 14.6023 15.6379 14.6435C15.8611 14.711 16.057 14.787 16.2258 14.8714C16.3964 14.9557 16.539 15.0504 16.6533 15.1554C16.7677 15.2605 16.854 15.3795 16.9121 15.5127C16.9702 15.6458 16.9993 15.7967 16.9993 15.9655C16.9993 16.1436 16.9646 16.303 16.8952 16.4437C16.8258 16.5843 16.7255 16.7034 16.5943 16.8009C16.463 16.8984 16.3064 16.9725 16.1245 17.0231C15.9427 17.0737 15.7392 17.099 15.5142 17.099C15.3117 17.099 15.112 17.0728 14.9151 17.0203C14.7182 16.9659 14.5391 16.8843 14.3779 16.7756C14.2185 16.6668 14.091 16.5281 13.9953 16.3593C13.9629 16.3021 13.936 16.2413 13.9146 16.177C13.8407 15.9552 14.0414 15.7602 14.2752 15.7602H14.3673C14.5502 15.7602 14.6829 15.9166 14.7576 16.0836C14.7969 16.1718 14.8523 16.243 14.9235 16.2974C14.9967 16.3518 15.0829 16.3912 15.1823 16.4155C15.2835 16.4399 15.3942 16.4521 15.5142 16.4521C15.6604 16.4521 15.7805 16.4315 15.8742 16.3902C15.9698 16.349 16.0402 16.2918 16.0852 16.2187C16.132 16.1455 16.1555 16.063 16.1555 15.9711Z" fill="#FFD147"/>
<path d="M10.3421 5.76221C10.3421 5.62965 10.2347 5.52219 10.1021 5.52219H6.98178C6.1864 5.52219 5.54163 6.16696 5.54163 6.96234V10.0827C5.54163 10.2152 5.64909 10.3227 5.78165 10.3227C5.91421 10.3227 6.02168 10.2152 6.02168 10.0827V6.96234C6.02168 6.43209 6.45153 6.00224 6.98178 6.00224H10.1021C10.2347 6.00224 10.3421 5.89477 10.3421 5.76221Z" fill="#700099"/>
<path d="M13.7025 5.76221C13.7025 5.89477 13.81 6.00224 13.9425 6.00224H17.0629C17.5931 6.00224 18.023 6.43209 18.023 6.96234V17.0434C18.023 17.5737 17.5931 18.0035 17.0629 18.0035H6.98178C6.45153 18.0035 6.02168 17.5737 6.02168 17.0434V13.9231C6.02168 13.7905 5.91421 13.6831 5.78165 13.6831C5.64909 13.6831 5.54163 13.7905 5.54163 13.9231V17.0434C5.54163 17.8388 6.1864 18.4836 6.98178 18.4836H17.0629C17.8582 18.4836 18.503 17.8388 18.503 17.0434V6.96234C18.503 6.16696 17.8582 5.52219 17.0629 5.52219H13.9425C13.81 5.52219 13.7025 5.62965 13.7025 5.76221Z" fill="#700099"/>
<path d="M12.502 5.76219C12.502 6.02729 12.2871 6.24221 12.022 6.24221C11.7569 6.24221 11.542 6.02729 11.542 5.76219C11.542 5.49708 11.7569 5.28217 12.022 5.28217C12.2871 5.28217 12.502 5.49708 12.502 5.76219Z" fill="#FFD147"/>
<path d="M6.26174 12.0024C6.26174 12.2676 6.04682 12.4825 5.78172 12.4825C5.51661 12.4825 5.3017 12.2676 5.3017 12.0024C5.3017 11.7373 5.51661 11.5224 5.78172 11.5224C6.04682 11.5224 6.26174 11.7373 6.26174 12.0024Z" fill="#FFD147"/>
</svg>
