<svg width="25" height="25" viewBox="0 0 25 25" fill="none" xmlns="http://www.w3.org/2000/svg">
<path d="M11.0462 5.55755C11.0462 5.36132 10.8476 5.23499 10.6815 5.32552L5.57524 8.10812C5.41004 8.19814 5.3064 8.37705 5.3064 8.57218V13.4251C5.3064 13.6581 5.5752 13.7748 5.73241 13.6101C5.77921 13.561 5.80551 13.4945 5.80551 13.4251V8.57218L10.9117 5.78958C10.9943 5.74456 11.0462 5.65511 11.0462 5.55755Z" fill="#700099"/>
<path d="M11.8141 18.7127L6.76927 15.9635C6.61962 15.882 6.58867 15.6716 6.70794 15.5466C6.78493 15.4659 6.90294 15.4468 6.99954 15.4995L12.0444 18.2486L17.0281 15.5328C17.1247 15.4802 17.2427 15.4992 17.3197 15.5799C17.4389 15.7049 17.408 15.9153 17.2583 15.9969L12.2747 18.7127C12.1303 18.7913 11.9585 18.7913 11.8141 18.7127Z" fill="#700099"/>
<path d="M18.3564 13.7075C18.5136 13.8722 18.7824 13.7556 18.7824 13.5226V8.57218C18.7824 8.37705 18.6787 8.19814 18.5135 8.10812L13.4073 5.32552C13.2412 5.23499 13.0426 5.36132 13.0426 5.55755C13.0426 5.65511 13.0944 5.74456 13.177 5.78958L18.2833 8.57218V13.5226C18.2833 13.5919 18.3096 13.6585 18.3564 13.7075Z" fill="#700099"/>
<path d="M13.292 11.2081C13.292 11.0155 13.1001 10.889 12.9345 10.9723L12.0442 11.4201L11.154 10.9723C10.9883 10.889 10.7964 11.0155 10.7964 11.2081C10.7964 11.3087 10.8515 11.4003 10.938 11.4438L11.7947 11.8748V18.2483C11.7947 18.3928 11.9064 18.5099 12.0442 18.5099C12.182 18.5099 12.2938 18.3928 12.2938 18.2483V11.8748L13.1504 11.4438C13.237 11.4003 13.292 11.3087 13.292 11.2081Z" fill="#700099"/>
<path d="M16.7858 9.19956C16.7858 9.39214 16.9777 9.51867 17.1433 9.43534L18.3911 8.80767C18.5154 8.74517 18.5677 8.58895 18.5081 8.45873C18.4484 8.32852 18.2994 8.27363 18.1751 8.33613L16.9273 8.96379C16.8408 9.00732 16.7858 9.09898 16.7858 9.19956Z" fill="#700099"/>
<path d="M5.91333 8.33613L7.16111 8.96379C7.24763 9.00732 7.30267 9.09898 7.30267 9.19956C7.30267 9.39214 7.11079 9.51867 6.94512 9.43534L5.69735 8.80767C5.57309 8.74517 5.52072 8.58895 5.58036 8.45873C5.64 8.32852 5.78908 8.27363 5.91333 8.33613Z" fill="#700099"/>
<ellipse cx="15.0388" cy="10.1415" rx="0.499522" ry="0.523482" fill="#FFD147"/>
<ellipse cx="9.04975" cy="10.1413" rx="0.499522" ry="0.523482" fill="#FFD147"/>
</svg>
