<svg width="25" height="25" viewBox="0 0 25 25" fill="none" xmlns="http://www.w3.org/2000/svg">
<path d="M12.3447 4.97795C12.225 4.99377 12.1356 5.0958 12.1356 5.2165V10.771C12.1356 10.9039 12.2433 11.0116 12.3762 11.0116H19.0576C19.1905 11.0116 19.2982 10.9039 19.2982 10.771V4.33282C19.2982 4.26351 19.2683 4.19755 19.2162 4.15186C19.1641 4.10617 19.0948 4.08519 19.026 4.09428L12.3447 4.97795Z" fill="#FFD147" stroke="#700099" stroke-width="0.481254" stroke-linejoin="round"/>
<path d="M4.78931 12.5498C4.65641 12.5498 4.54868 12.6575 4.54868 12.7904V17.2092C4.54868 17.33 4.63824 17.4321 4.75802 17.4478L10.534 18.2053C10.6027 18.2143 10.672 18.1933 10.724 18.1476C10.7761 18.1019 10.806 18.036 10.806 17.9667V12.7904C10.806 12.6575 10.6982 12.5498 10.5653 12.5498H4.78931Z" fill="#FFD147" stroke="#700099" stroke-width="0.481254" stroke-linejoin="round"/>
<path d="M12.3762 12.2855C12.126 12.2855 11.9232 12.5116 11.9232 12.7905V18.2184C11.9232 18.4711 12.0907 18.6849 12.3153 18.7188L18.9964 19.7287C19.1259 19.7482 19.2567 19.7045 19.3552 19.6086C19.4537 19.5127 19.5102 19.3741 19.5102 19.2283V18.3447C19.5102 18.2052 19.4088 18.0922 19.2837 18.0922C19.1586 18.0922 19.0572 18.2052 19.0572 18.3447V19.2283L12.3762 18.2184V12.7905H19.0572V14.3053C19.0572 14.4447 19.1586 14.5577 19.2837 14.5577C19.4088 14.5577 19.5102 14.4447 19.5102 14.3053V12.7905C19.5102 12.5116 19.3074 12.2855 19.0572 12.2855H12.3762Z" fill="#700099"/>
<path d="M6.14811 5.92453C6.14811 5.77145 6.02688 5.6536 5.89084 5.67441L4.72766 5.85238C4.50341 5.8867 4.3363 6.10029 4.3363 6.35262V10.7707C4.3363 11.0496 4.5391 11.2757 4.78925 11.2757H10.5644C10.8145 11.2757 11.0173 11.0496 11.0173 10.7707V5.469C11.0173 5.32311 10.9607 5.18435 10.8621 5.08846C10.7635 4.99257 10.6324 4.94892 10.5028 4.96876L9.51444 5.11998C9.40232 5.13714 9.31876 5.24393 9.31876 5.3701C9.31876 5.52318 9.43999 5.64104 9.57604 5.62022L10.5644 5.469V10.7707H4.78925V6.35262L5.95243 6.17465C6.06456 6.1575 6.14811 6.0507 6.14811 5.92453Z" fill="#700099"/>
<ellipse cx="19.2842" cy="16.3252" rx="0.453348" ry="0.505371" fill="#FFD147"/>
<ellipse cx="7.73411" cy="5.72189" rx="0.453348" ry="0.505371" fill="#FFD147"/>
</svg>
