<svg width="25" height="25" viewBox="0 0 25 25" fill="none" xmlns="http://www.w3.org/2000/svg">
<path d="M18.014 17.7123C19.1223 17.0891 19.8805 16.0309 20.1843 15.3498C20.2589 15.1826 20.2361 15.1474 20.0741 15.2329C19.6032 15.4816 18.4012 15.9323 16.3837 15.9791C13.5375 16.0452 12.2911 16.6398 12.0586 17.2179C12.4913 17.4924 13.2168 17.9059 14.3491 18.1086" stroke="#700099" stroke-width="0.481254" stroke-linecap="round" stroke-linejoin="round"/>
<path d="M6.10318 17.7123C4.9949 17.0891 4.23664 16.0309 3.93286 15.3498C3.85826 15.1826 3.88112 15.1474 4.04306 15.2329C4.51398 15.4816 5.71596 15.9323 7.73348 15.9791C10.5797 16.0452 11.8261 16.6398 12.0586 17.2179C11.6259 17.4924 10.9003 17.9059 9.76805 18.1086" stroke="#700099" stroke-width="0.481254" stroke-linecap="round" stroke-linejoin="round"/>
<path d="M18.2431 15.7303C19.6937 14.0569 21.8679 9.81224 19.961 11.1441C17.5559 12.824 12.6312 11.8047 12.0586 16.6928" stroke="#700099" stroke-width="0.481254" stroke-linecap="round" stroke-linejoin="round"/>
<path d="M5.87421 15.7305C4.42353 14.0571 2.21755 9.76988 4.12448 11.1018C6.52955 12.7816 11.4542 11.7623 12.0269 16.6504" stroke="#700099" stroke-width="0.481254" stroke-linecap="round" stroke-linejoin="round"/>
<path d="M16.2106 12.0322C16.0197 10.7549 14.0343 8.59689 12.0871 5.29373" stroke="#700099" stroke-width="0.481254" stroke-linecap="round" stroke-linejoin="round"/>
<path d="M8.19272 12.1643C8.38362 10.8871 10.1399 8.59689 12.0871 5.29373" stroke="#700099" stroke-width="0.481254" stroke-linecap="round" stroke-linejoin="round"/>
<path d="M18.9588 12.6917C18.7297 13.0441 18.0424 13.6167 17.355 13.881" stroke="#FFD147" stroke-width="0.481254" stroke-linecap="round" stroke-linejoin="round"/>
<path d="M5.21514 12.6919C5.44425 13.0443 6.13158 13.6169 6.81891 13.8812" stroke="#FFD147" stroke-width="0.481254" stroke-linecap="round" stroke-linejoin="round"/>
<ellipse cx="12.2019" cy="8.06852" rx="0.343883" ry="0.39668" fill="#FFD147"/>
<ellipse cx="12.2019" cy="9.12532" rx="0.343883" ry="0.39668" fill="#FFD147"/>
<ellipse cx="12.2019" cy="10.1821" rx="0.343883" ry="0.39668" fill="#FFD147"/>
<ellipse cx="7.93611" cy="18.2409" rx="0.45851" ry="0.528906" fill="#FFD147"/>
<ellipse cx="16.1817" cy="18.2406" rx="0.45851" ry="0.528906" fill="#FFD147"/>
</svg>
